<svg width="30" height="30" viewBox="0 0 30 30" fill="none" xmlns="http://www.w3.org/2000/svg">
<path d="M23.875 6.125C21.5 3.75 18.375 2.5 15 2.5C8.125 2.5 2.5 8.125 2.5 15C2.5 17.25 3.125 19.375 4.125 21.25L2.5 27.5L9 26C10.875 27 12.875 27.5 15 27.5C21.875 27.5 27.5 21.875 27.5 15C27.5 11.625 26.25 8.5 23.875 6.125ZM21.125 19.5C20.875 20.25 19.625 20.875 19 21C18.375 21 17.875 21.25 15.25 20.25C12.125 19 10.125 15.75 9.875 15.5C9.75 15.25 8.625 13.75 8.625 12.25C8.625 10.75 9.375 10 9.75 9.625C10 9.25 10.375 9.25 10.625 9.25C10.875 9.25 11 9.25 11.25 9.25C11.5 9.25 11.75 9.25 12 9.75C12.25 10.375 12.875 11.875 13 12.125C13.125 12.375 13.125 12.5 13 12.625C12.875 12.75 12.875 13 12.75 13.125C12.625 13.25 12.375 13.5 12.25 13.625C12.125 13.75 11.875 14 12.125 14.25C12.25 14.625 12.875 15.625 13.875 16.375C15.125 17.5 16.125 17.75 16.375 17.875C16.75 18 16.875 18 17 17.75C17.125 17.5 17.75 16.875 18 16.5C18.25 16.125 18.375 16.25 18.75 16.375C19.125 16.5 20.625 17.25 20.875 17.375C21.25 17.5 21.375 17.625 21.5 17.75C21.375 18.125 21.375 18.75 21.125 19.5Z" fill="#00025B"/>
</svg>
