<svg width="180" height="81" viewBox="0 0 216 81" fill="none" xmlns="http://www.w3.org/2000/svg">
<g clip-path="url(#clip0_196_382)">
<path d="M194.312 40.3743C188.313 34.4787 190.356 20.927 200.494 20.0483C210.633 19.1697 215.276 24.6734 213.907 34.789C212.682 43.8267 199.872 45.8387 194.312 40.3743ZM207.728 25.2907C205.131 22.8214 199.358 22.9553 197.108 25.8721C195.19 28.3577 195.072 33.5707 196.509 36.311C198.575 40.2502 205.806 40.678 208.337 37.0688C210.207 34.4003 210.158 27.5967 207.728 25.2907Z" fill="#3F3F3F"/>
<path d="M125.558 42.8795H120.607C119.991 42.8795 114.294 34.0573 113.629 32.8129C113.567 32.4732 113.531 31.0752 113.626 30.974C113.966 30.6212 117.712 30.7649 119.137 28.1323C119.923 26.6788 119.598 23.8078 117.876 23.8078H110.875V42.8795H106.435V20.5709C106.435 20.535 106.909 20.0614 106.945 20.0614H118.898C119.991 20.0614 122.539 21.6357 123.168 22.6124C125.945 26.9108 122.641 31.2549 118.734 33.1722L125.555 42.8828L125.558 42.8795Z" fill="#3F3F3F"/>
<path d="M145.019 36.7487C145.396 36.2424 146.26 33.1591 146.431 33.048C146.941 32.7181 149.938 33.195 150.822 32.999L147.58 24.8268L140.199 42.837L135.801 42.8762C138.506 35.3834 142.082 28.0572 145.049 20.597C145.858 19.4669 148.415 20.3227 149.65 20.0352L159.693 42.3797C159.798 43.0624 159.67 42.8174 159.198 42.8762C158.501 42.9644 155.731 42.997 155.259 42.7129C154.503 42.2556 153.471 37.5816 152.364 36.7454H145.023L145.019 36.7487Z" fill="#3F3F3F"/>
<path d="M174.726 20.0614V23.8078H167.899V42.8795H163.799V23.8078H157.312V20.0614H174.726Z" fill="#3F3F3F"/>
<path d="M104.044 20.0614V23.8078H97.5572V42.8795H93.4606V23.8078H86.9736V20.0614H104.044Z" fill="#3F3F3F"/>
<path d="M181.214 20.0614V39.4761H190.435V42.8795H177.117V20.0614H181.214Z" fill="#3F3F3F"/>
<path d="M132.726 20.0614H128.63V42.8795H132.726V20.0614Z" fill="#3F3F3F"/>
<path d="M135.205 2.7927C136.256 2.97561 137.533 4.00122 137.756 5.10195C138.336 7.97299 135.388 8.79609 135.395 9.04106C135.428 10.0699 139.03 13.3003 138.228 14.0613C136.056 15.3907 132.071 8.59685 132.579 8.02852C136.793 7.44712 136.358 3.92609 131.773 4.80472V13.4603C131.773 14.2605 129.35 14.2605 129.35 13.4603V2.7927C131.138 3.00827 133.509 2.49547 135.202 2.7927H135.205Z" fill="#3F3F3F"/>
<path d="M180.506 2.89073C189.046 1.51236 189.433 12.99 183.136 13.9731C174.933 15.2535 174.026 3.93593 180.506 2.89073ZM184.128 11.53C185.713 10.2561 185.749 5.28816 182.805 4.83088C179.036 4.24622 178.07 6.45748 178.62 9.81846C179.023 12.2682 182.53 12.8136 184.128 11.53Z" fill="#3F3F3F"/>
<path d="M106.749 2.79266C109.794 2.87758 114.922 2.03489 116.124 5.71923C116.9 8.1036 116.671 11.9088 114.163 13.2088C113 13.813 106.746 14.7668 106.746 13.4603V2.79266H106.749ZM108.769 12.0525C116.412 13.5877 116.802 3.00497 108.769 4.80468V12.0525Z" fill="#3F3F3F"/>
<path d="M103.923 2.79272V4.80801L98.6735 4.80474V7.22504L103.52 7.22177V9.24032L98.6669 9.46896L98.6735 12.0591C99.4856 12.193 103.743 11.8697 103.926 12.0591C103.982 12.1179 104.005 13.6661 103.926 13.6661H96.2568V3.39698C96.2568 3.35452 96.8201 2.79272 96.8626 2.79272H103.926H103.923Z" fill="#3F3F3F"/>
<path d="M162.044 5.20646C161.72 5.55269 154.561 2.67185 154.876 8.52498C155.167 13.9633 161.726 11.3307 162.044 11.6541C162.492 13.9862 160.528 13.7641 158.818 14.0711C158.736 14.7472 159.761 14.4434 159.997 15.1065C161.002 17.9449 154.941 17.4059 156.395 15.6781C156.621 15.4103 158.805 16.9748 158.412 15.2763H156.795L157.197 13.6661C152.426 14.1723 151.31 6.2288 154.263 3.98815C155.73 2.87435 160.216 2.18844 161.638 3.39369C162.08 3.76931 162.214 5.01702 162.037 5.20646H162.044Z" fill="#3F3F3F"/>
<path d="M174.962 14.0646C172.071 15.1849 172.745 11.334 171.478 10.8996C170.584 10.5926 169.097 10.991 168.102 10.8408C168.518 8.76018 168.927 9.175 170.924 9.23379L169.71 5.61477C169.022 5.07911 166.448 13.1664 165.882 13.6694C165.132 14.3357 164.241 14.2867 163.668 13.4669C164.935 11.9089 167.329 3.70401 168.495 2.99196C169.114 2.61308 170.24 2.61308 170.725 3.19774C171.101 4.76881 175.63 13.4179 174.959 14.0679L174.962 14.0646Z" fill="#3F3F3F"/>
<path d="M151.549 14.0646C148.562 15.0804 148.817 11.3634 148.277 10.8931C147.92 10.5828 144.914 11.0662 144.691 10.8441C143.778 9.93605 146.077 8.7014 147.115 9.2338C147.419 8.95944 145.955 5.2751 145.504 5.61152C145.003 6.68612 142.589 13.7641 142.203 13.996C141.767 14.2573 140.818 13.9862 140.254 14.0613C140.48 12.6242 144.161 3.32187 144.672 2.97565C145.317 2.53797 146.355 2.69148 146.918 3.19122C147.36 3.58317 152 13.6759 151.552 14.0613L151.549 14.0646Z" fill="#3F3F3F"/>
<path d="M126.527 2.79272V4.80801L121.278 4.80474V7.22504L126.124 7.22177V9.24032L121.271 9.46896L121.278 12.0591C122.09 12.193 126.347 11.8697 126.531 12.0591C126.586 12.1179 126.609 13.6661 126.531 13.6661H119.264V2.79272H126.531H126.527Z" fill="#3F3F3F"/>
<path d="M93.6308 2.79276C94.2169 2.9724 94.4494 4.58267 94.2366 4.80477C94.0565 4.99422 89.7962 4.67086 88.9874 4.80477V7.22507L93.8338 7.22181V9.24036L88.9874 9.23709C88.7516 11.2916 90.0549 14.5742 86.9702 14.0712V2.79276C88.6992 3.11938 92.1736 2.34855 93.6308 2.79276Z" fill="#3F3F3F"/>
<path d="M171.328 0.385448C171.393 0.45404 171.491 1.72462 171.088 2.02838C170.882 2.18516 167.427 2.11983 167.29 1.98592C167.084 1.78014 167.231 0.228668 167.955 0.00329576C168.118 -0.0456982 171.206 0.26133 171.328 0.382182V0.385448Z" fill="#3F3F3F"/>
<path d="M199.784 2.7927C203.792 3.45575 204.493 7.86847 203.298 11.1347C202.056 14.5218 196.915 14.0842 193.932 14.0646V2.7927C195.736 2.99848 198.065 2.50854 199.784 2.7927ZM195.949 12.0526C203.592 13.5877 203.982 3.00501 195.949 4.80472V12.0526Z" fill="#3F3F3F"/>
<path d="M213.707 2.79272V4.80801L208.458 4.80474V7.22504C210.017 7.57126 213.684 6.16024 213.717 8.62953C213.73 9.58655 213.462 9.175 212.718 9.23706C211.317 9.35138 209.863 9.15213 208.461 9.23706V12.0558H214.113C214.244 12.5817 214.038 14.0679 213.508 14.0679H206.444V2.79272H213.711H213.707Z" fill="#3F3F3F"/>
<path d="M38.3094 53.1648C38.5714 54.8306 36.79 56.6859 35.1691 56.7447C30.8302 56.8949 30.4438 44.7477 35.6144 43.7547C37.4777 43.3955 38.3193 44.4309 38.3062 46.1456C33.6628 45.3421 32.831 56.1796 38.3127 53.1648H38.3094Z" fill="#3F3F3F"/>
<path d="M57.3055 38.1401H52.7244C52.6392 37.6632 53.3433 37.7154 53.6969 37.6436C54.5712 37.4672 55.6388 37.3104 56.5295 37.1994C59.7124 36.8107 69.7261 36.0921 71.8972 38.4504C72.4997 39.1036 72.6503 41.3214 72.205 42.0596C71.7596 42.7977 66.2616 45.3062 65.0041 46.309C61.1008 49.4217 63.4782 50.823 64.8961 54.2558C66.8477 58.969 69.6999 66.1515 70.6561 71.0476C70.7478 71.5114 70.9148 72.4064 70.5742 72.7657C65.3316 67.9676 59.1393 63.0355 55.2131 57.0582C51.9057 52.0282 51.5684 49.6079 56.7489 45.9105C58.8839 44.3851 63.0034 42.9741 63.5338 40.4297C63.5764 40.2305 63.953 40.2729 63.6321 39.5609C62.7217 37.5489 59.0804 37.98 57.3121 38.1433L57.3055 38.1401Z" fill="#3F3F3F"/>
<path d="M19.975 10.3769L18.6685 10.0535C32.1042 3.96847 31.0858 12.7482 33.8921 22.1354C36.1254 29.5923 38.3816 32.8585 42.8973 38.9567C43.3655 39.5903 43.5063 39.8712 42.5698 39.7732C41.2403 38.4896 38.3914 37.4084 36.6624 35.7035C29.658 28.8019 28.9605 21.5899 25.961 13.0617C24.8575 9.92613 23.2431 9.35454 19.975 10.3769Z" fill="#3F3F3F"/>
<path d="M21.6157 67.5332L22.9288 66.7199L21.619 66.2332C23.2956 65.9262 25.4077 63.8652 26.842 63.4373C30.7224 62.2745 34.1738 65.0083 37.8316 61.0072C41.843 56.6141 42.2654 50.1893 43.3886 44.6628C43.4606 44.3101 43.4082 43.6078 43.883 43.6927C44.0566 50.5127 43.7259 59.4132 39.1414 64.9267C34.5242 70.4761 27.7589 67.4417 21.619 67.5332H21.6157Z" fill="#3F3F3F"/>
<path d="M0 67.5364C0.0229222 67.0628 2.85546 60.4617 3.3139 59.5732C7.88197 50.7053 16.9035 50.1795 24.3401 56.16C24.8805 56.5944 25.3454 56.81 24.2321 56.7577C22.0283 54.5628 15.6755 54.3701 12.8725 55.3892C6.09404 57.8617 7.2991 65.9718 0 67.5364Z" fill="#3F3F3F"/>
<path d="M47.8095 28.3413C47.8422 28.0637 48.2581 27.8122 48.1304 26.9107C47.4002 21.7271 38.3917 21.3678 38.3131 26.3816C38.2968 27.3353 38.7748 28.1519 38.968 28.9946C37.3209 27.9755 37.0688 26.0157 36.3484 24.4218C36.2337 21.2045 37.1244 18.0918 40.7985 17.5921C47.9863 16.6154 51.8503 24.7452 47.9765 30.2945C47.2233 29.8046 47.7309 29.0599 47.8128 28.3413H47.8095Z" fill="#3F3F3F"/>
<path d="M82.1924 37.1602L79.0357 36.5266C78.3087 36.4547 76.809 36.8206 76.4488 37.4836C76.0034 38.3034 76.5306 38.4504 76.6289 38.7934C76.8548 39.5871 77.0742 40.1162 77.6112 40.7531C77.5785 40.7433 77.382 41.0798 76.9727 40.9458C75.4369 40.4396 74.1041 38.8587 73.3542 37.4869C73.2265 35.2364 74.2089 34.5505 76.4651 34.5472C78.2727 34.5472 80.9481 35.8374 82.1957 37.1602H82.1924Z" fill="#3F3F3F"/>
<path d="M88.4243 67.5561H91.3911C92.3506 67.5561 93.1987 67.7684 93.9388 68.1865C94.6788 68.6079 95.2486 69.1991 95.6514 69.9601C96.0541 70.7211 96.2572 71.59 96.2572 72.5666C96.2572 73.5432 96.0541 74.4414 95.6514 75.2024C95.2486 75.9635 94.6755 76.5547 93.9388 76.976C93.1987 77.3974 92.3506 77.6064 91.3911 77.6064H88.4243V67.5529V67.5561ZM91.378 77.1524C92.2622 77.1524 93.035 76.963 93.703 76.5841C94.371 76.2052 94.8851 75.6695 95.2453 74.9771C95.6055 74.2846 95.7856 73.4811 95.7856 72.5698C95.7856 71.6585 95.6055 70.8746 95.2453 70.1855C94.8851 69.4963 94.371 68.9639 93.703 68.585C93.035 68.2061 92.2622 68.0167 91.378 68.0167H88.9024V77.1491H91.378V77.1524Z" fill="#3F3F3F" stroke="#3F3F3F" stroke-width="0.98" stroke-miterlimit="10"/>
<path d="M98.2318 67.556H103.242V68.0166H98.7066V72.1517H102.839V72.6122H98.7066V77.149H103.399V77.6096H98.2285V67.556H98.2318Z" fill="#3F3F3F" stroke="#3F3F3F" stroke-width="0.98" stroke-miterlimit="10"/>
<path d="M105.331 67.556H105.806V77.149H110.426V77.6096H105.328V67.556H105.331Z" fill="#3F3F3F" stroke="#3F3F3F" stroke-width="0.98" stroke-miterlimit="10"/>
<path d="M111.765 67.556H116.776V68.0166H112.24V72.1517H116.373V72.6122H112.24V77.149H116.933V77.6096H111.762V67.556H111.765Z" fill="#3F3F3F" stroke="#3F3F3F" stroke-width="0.98" stroke-miterlimit="10"/>
<path d="M120.434 77.1001C119.648 76.6558 119.029 76.0385 118.584 75.2546C118.138 74.4707 117.916 73.5888 117.916 72.6122C117.916 71.6356 118.138 70.7341 118.584 69.9404C119.029 69.1467 119.648 68.5229 120.434 68.0721C121.22 67.6214 122.104 67.396 123.083 67.396C124.147 67.396 125.064 67.6344 125.827 68.1146C126.59 68.5947 127.192 69.2741 127.635 70.1527L127.219 70.3389C126.384 68.6829 125.012 67.8533 123.099 67.8533C122.205 67.8533 121.403 68.0558 120.689 68.4641C119.975 68.8723 119.415 69.4374 119.013 70.1593C118.61 70.8811 118.407 71.6977 118.407 72.6089C118.407 73.5202 118.61 74.3172 119.013 75.0292C119.415 75.7413 119.975 76.2998 120.689 76.7016C121.403 77.1033 122.209 77.3058 123.099 77.3058C123.915 77.3058 124.655 77.1229 125.316 76.7538C125.978 76.3847 126.511 75.8719 126.914 75.2154C127.317 74.5589 127.546 73.8109 127.605 72.9682H122.896V72.5371H128.093L128.08 72.7951C128.021 73.7717 127.772 74.634 127.33 75.3885C126.888 76.1398 126.302 76.7244 125.565 77.1393C124.831 77.5541 124.006 77.7631 123.096 77.7631C122.107 77.7631 121.22 77.541 120.434 77.0968V77.1001Z" fill="#3F3F3F" stroke="#3F3F3F" stroke-width="0.98" stroke-miterlimit="10"/>
<path d="M132.471 67.556H132.946L136.705 77.6096H136.214L135.205 74.8953H130.208L129.2 77.6096H128.708L132.468 67.556H132.471ZM135.032 74.4511L132.7 68.1178L130.382 74.4511H135.032Z" fill="#3F3F3F" stroke="#3F3F3F" stroke-width="0.98" stroke-miterlimit="10"/>
<path d="M142.377 77.7697L142.16 78.5732L142.406 78.5602C142.809 78.5602 143.136 78.6614 143.385 78.8607C143.634 79.0632 143.758 79.3245 143.758 79.6511C143.758 80.043 143.618 80.3403 143.333 80.5428C143.048 80.7453 142.688 80.8433 142.246 80.8433C141.928 80.8433 141.542 80.7616 141.08 80.5983L141.165 80.2684C141.568 80.4219 141.918 80.4971 142.216 80.4971C142.57 80.4971 142.851 80.4285 143.058 80.288C143.264 80.1508 143.369 79.9353 143.369 79.6478C143.369 79.3996 143.274 79.2036 143.081 79.0664C142.887 78.9293 142.619 78.8574 142.275 78.8574C142.131 78.8672 141.987 78.877 141.843 78.8868L141.758 78.7561L142.029 77.7501C141.135 77.6913 140.333 77.4333 139.619 76.976C138.905 76.5155 138.345 75.9047 137.943 75.1437C137.54 74.3826 137.337 73.5367 137.337 72.609C137.337 71.6226 137.556 70.7309 137.998 69.9372C138.44 69.1435 139.046 68.5197 139.819 68.0689C140.592 67.6182 141.456 67.3928 142.419 67.3928C143.438 67.3928 144.345 67.6378 145.147 68.131C145.949 68.6242 146.552 69.2971 146.954 70.1495L146.552 70.3357C146.169 69.5616 145.618 68.9508 144.905 68.5131C144.191 68.0722 143.362 67.8534 142.422 67.8534C141.548 67.8534 140.762 68.0591 140.061 68.4707C139.361 68.8822 138.81 69.4506 138.414 70.1724C138.015 70.8943 137.815 71.7075 137.815 72.6058C137.815 73.504 138.015 74.2977 138.414 75.013C138.814 75.7251 139.361 76.2868 140.061 76.6919C140.762 77.1001 141.548 77.3027 142.422 77.3027C143.392 77.3027 144.233 77.0838 144.95 76.6429C145.664 76.2019 146.205 75.5846 146.571 74.7909L147.004 74.9771C146.601 75.859 145.998 76.5416 145.196 77.0316C144.394 77.5215 143.47 77.7632 142.426 77.7632H142.383L142.377 77.7697Z" fill="#3F3F3F" stroke="#3F3F3F" stroke-width="0.98" stroke-miterlimit="10"/>
<path d="M151.477 67.5561H151.952L155.711 77.6096H155.22L154.211 74.8954H149.214L148.206 77.6096H147.714L151.474 67.5561H151.477ZM152.24 66.0569C152.056 65.9262 151.84 65.7335 151.591 65.4755C151.388 65.2566 151.212 65.0901 151.058 64.979C150.904 64.8679 150.737 64.8124 150.553 64.8124C150.016 64.8124 149.748 65.1652 149.748 65.874V66.1908H149.358V65.8609C149.358 65.4003 149.46 65.0509 149.669 64.8059C149.876 64.5609 150.167 64.4401 150.54 64.4401C150.799 64.4401 151.022 64.5054 151.202 64.6328C151.385 64.7634 151.601 64.9561 151.85 65.2142C152.053 65.433 152.227 65.5996 152.374 65.7106C152.521 65.8217 152.688 65.874 152.872 65.874C153.16 65.874 153.37 65.7858 153.504 65.6094C153.638 65.433 153.707 65.1619 153.707 64.7994V64.4695H154.097V64.8124C154.097 65.273 153.988 65.6257 153.772 65.874C153.556 66.1222 153.262 66.2463 152.888 66.2463C152.639 66.2463 152.423 66.181 152.24 66.0536V66.0569ZM154.041 74.4512L151.709 68.1179L149.391 74.4512H154.041Z" fill="#3F3F3F" stroke="#3F3F3F" stroke-width="0.98" stroke-miterlimit="10"/>
<path d="M158.864 77.1001C158.078 76.6559 157.46 76.0386 157.014 75.2481C156.569 74.4577 156.346 73.5693 156.346 72.5828C156.346 71.5964 156.569 70.708 157.014 69.9176C157.46 69.1271 158.078 68.5098 158.864 68.0656C159.65 67.6214 160.538 67.3993 161.527 67.3993C162.516 67.3993 163.403 67.6214 164.189 68.0656C164.975 68.5098 165.594 69.1271 166.046 69.9176C166.497 70.708 166.723 71.5964 166.723 72.5828C166.723 73.5693 166.497 74.4577 166.046 75.2481C165.594 76.0386 164.975 76.6559 164.189 77.1001C163.403 77.5443 162.512 77.7664 161.527 77.7664C160.541 77.7664 159.65 77.5443 158.864 77.1001ZM163.953 76.7049C164.667 76.3031 165.23 75.7413 165.636 75.026C166.046 74.3074 166.249 73.4941 166.249 72.5861C166.249 71.6781 166.046 70.8615 165.636 70.1462C165.227 69.4276 164.667 68.8691 163.953 68.4674C163.239 68.0656 162.43 67.8631 161.527 67.8631C160.623 67.8631 159.827 68.0656 159.107 68.4674C158.386 68.8691 157.826 69.4309 157.424 70.1462C157.021 70.8615 156.818 71.6781 156.818 72.5861C156.818 73.4941 157.021 74.3107 157.424 75.026C157.826 75.7446 158.39 76.3031 159.107 76.7049C159.827 77.1066 160.633 77.3091 161.527 77.3091C162.421 77.3091 163.239 77.1066 163.953 76.7049Z" fill="#3F3F3F" stroke="#3F3F3F" stroke-width="0.98" stroke-miterlimit="10"/>
<path d="M172.326 67.556H172.772L178.46 76.6624V67.556H178.951V77.6096H178.489L172.801 68.5032V77.6096H172.326V67.556Z" fill="#3F3F3F" stroke="#3F3F3F" stroke-width="0.98" stroke-miterlimit="10"/>
<path d="M183.427 77.1001C182.641 76.6559 182.023 76.0386 181.577 75.2481C181.132 74.4577 180.909 73.5693 180.909 72.5828C180.909 71.5964 181.132 70.708 181.577 69.9176C182.023 69.1271 182.641 68.5098 183.427 68.0656C184.213 67.6214 185.101 67.3993 186.09 67.3993C187.079 67.3993 187.966 67.6214 188.752 68.0656C189.538 68.5098 190.157 69.1271 190.609 69.9176C191.06 70.708 191.286 71.5964 191.286 72.5828C191.286 73.5693 191.06 74.4577 190.609 75.2481C190.157 76.0386 189.538 76.6559 188.752 77.1001C187.966 77.5443 187.075 77.7664 186.09 77.7664C185.104 77.7664 184.213 77.5443 183.427 77.1001ZM188.516 76.7049C189.23 76.3031 189.793 75.7413 190.199 75.026C190.609 74.3074 190.812 73.4941 190.812 72.5861C190.812 71.6781 190.609 70.8615 190.199 70.1462C189.79 69.4276 189.23 68.8691 188.516 68.4674C187.802 68.0656 186.993 67.8631 186.09 67.8631C185.186 67.8631 184.39 68.0656 183.67 68.4674C182.949 68.8691 182.389 69.4309 181.987 70.1462C181.584 70.8615 181.381 71.6781 181.381 72.5861C181.381 73.4941 181.584 74.3107 181.987 75.026C182.389 75.7446 182.953 76.3031 183.67 76.7049C184.39 77.1066 185.196 77.3091 186.09 77.3091C186.984 77.3091 187.802 77.1066 188.516 76.7049Z" fill="#3F3F3F" stroke="#3F3F3F" stroke-width="0.98" stroke-miterlimit="10"/>
<path d="M198.949 77.6096L195.88 73.1871H193.736V77.6096H193.261V67.556H196.185C196.751 67.556 197.259 67.6769 197.711 67.9153C198.163 68.1538 198.513 68.4902 198.762 68.9213C199.011 69.3525 199.135 69.8391 199.135 70.3846C199.135 71.1685 198.883 71.8185 198.379 72.3313C197.875 72.8441 197.22 73.125 196.414 73.1707L199.496 77.6096H198.949ZM196.139 72.7429C196.889 72.7429 197.495 72.5273 197.96 72.0961C198.425 71.665 198.657 71.0967 198.657 70.3879C198.657 69.6791 198.425 69.1206 197.96 68.6796C197.495 68.2387 196.892 68.0198 196.152 68.0198H193.732V72.7461H196.136L196.139 72.7429Z" fill="#3F3F3F" stroke="#3F3F3F" stroke-width="0.98" stroke-miterlimit="10"/>
<path d="M202.98 68.0166H199.983V67.556H206.447V68.0166H203.451V77.6096H202.976V68.0166H202.98Z" fill="#3F3F3F" stroke="#3F3F3F" stroke-width="0.98" stroke-miterlimit="10"/>
<path d="M208.219 67.556H213.229V68.0166H208.694V72.1517H212.826V72.6122H208.694V77.149H213.386V77.6096H208.216V67.556H208.219Z" fill="#3F3F3F" stroke="#3F3F3F" stroke-width="0.98" stroke-miterlimit="10"/>
<path d="M88.4175 48.4811H91.2959C91.9966 48.4811 92.6188 48.6215 93.1624 48.9024C93.7092 49.1833 94.1349 49.572 94.4428 50.075C94.7506 50.578 94.9045 51.1496 94.9045 51.7963C94.9045 52.4431 94.7506 53.0114 94.4428 53.5079C94.1349 54.0043 93.7092 54.393 93.1624 54.6739C92.6155 54.9548 91.9933 55.0953 91.2959 55.0953H88.9447V59.5831H88.4207V48.4843L88.4175 48.4811ZM91.2631 54.5857C92.1964 54.5857 92.9495 54.331 93.5193 53.8182C94.0924 53.3053 94.3773 52.6325 94.3773 51.7963C94.3773 50.9602 94.0924 50.2841 93.5193 49.768C92.9463 49.2487 92.1931 48.9906 91.2631 48.9906H88.9414V54.5857H91.2631Z" fill="#3F3F3F" stroke="#3F3F3F" stroke-width="1.08" stroke-miterlimit="10"/>
<path d="M106.411 59.0148C105.544 58.5248 104.862 57.8422 104.368 56.9701C103.874 56.098 103.628 55.1181 103.628 54.0305C103.628 52.9428 103.874 51.9629 104.368 51.0908C104.862 50.2187 105.54 49.5361 106.411 49.0462C107.282 48.5562 108.261 48.308 109.352 48.308C110.442 48.308 111.425 48.553 112.293 49.0462C113.16 49.5361 113.845 50.2187 114.342 51.0908C114.84 51.9629 115.089 52.9428 115.089 54.0305C115.089 55.1181 114.84 56.098 114.342 56.9701C113.845 57.8422 113.16 58.5248 112.293 59.0148C111.425 59.5047 110.442 59.753 109.352 59.753C108.261 59.753 107.279 59.508 106.411 59.0148ZM112.031 58.5804C112.82 58.1362 113.439 57.5188 113.891 56.7251C114.342 55.9314 114.565 55.0332 114.565 54.0305C114.565 53.0277 114.339 52.1262 113.891 51.3358C113.439 50.5421 112.82 49.9248 112.031 49.4806C111.241 49.0364 110.347 48.8143 109.352 48.8143C108.356 48.8143 107.476 49.0364 106.68 49.4806C105.884 49.9248 105.265 50.5421 104.82 51.3358C104.375 52.1295 104.152 53.0277 104.152 54.0305C104.152 55.0332 104.375 55.9314 104.82 56.7251C105.265 57.5188 105.884 58.1362 106.68 58.5804C107.476 59.0246 108.366 59.2467 109.352 59.2467C110.338 59.2467 111.241 59.0246 112.031 58.5804Z" fill="#3F3F3F" stroke="#3F3F3F" stroke-width="1.08" stroke-miterlimit="10"/>
<path d="M130.699 59.5798L127.313 54.6968H124.946V59.5798H124.422V48.4811H127.647C128.273 48.4811 128.833 48.615 129.334 48.8763C129.832 49.1409 130.218 49.51 130.493 49.9868C130.768 50.4637 130.906 51.0026 130.906 51.6036C130.906 52.4692 130.627 53.1878 130.071 53.7528C129.514 54.3179 128.79 54.6282 127.9 54.6804L131.302 59.5798H130.699ZM127.602 54.2036C128.427 54.2036 129.098 53.9651 129.612 53.4915C130.126 53.0147 130.382 52.3875 130.382 51.6036C130.382 50.8197 130.123 50.2024 129.612 49.7157C129.098 49.2291 128.433 48.9874 127.618 48.9874H124.949V54.2036H127.605H127.602Z" fill="#3F3F3F" stroke="#3F3F3F" stroke-width="1.08" stroke-miterlimit="10"/>
<path d="M142.304 48.9874H138.997V48.4811H146.132V48.9874H142.825V59.5798H142.301V48.9874H142.304Z" fill="#3F3F3F" stroke="#3F3F3F" stroke-width="1.08" stroke-miterlimit="10"/>
<path d="M156.801 59.2695C156.251 58.9462 155.822 58.502 155.514 57.9304C155.206 57.3588 155.052 56.7088 155.052 55.9804V48.4811H155.576V55.9804C155.576 56.6141 155.707 57.1791 155.966 57.6756C156.225 58.1721 156.591 58.5575 157.063 58.8319C157.534 59.1062 158.071 59.2434 158.677 59.2434C159.283 59.2434 159.82 59.1062 160.292 58.8319C160.763 58.5575 161.13 58.1721 161.389 57.6756C161.647 57.1791 161.778 56.6141 161.778 55.9804V48.4811H162.302V55.9804C162.302 56.7088 162.148 57.3588 161.841 57.9304C161.533 58.502 161.104 58.9462 160.554 59.2695C160.003 59.5929 159.378 59.7529 158.677 59.7529C157.976 59.7529 157.351 59.5929 156.801 59.2695Z" fill="#3F3F3F" stroke="#3F3F3F" stroke-width="1.08" stroke-miterlimit="10"/>
<path d="M174.333 59.0148C173.465 58.5248 172.784 57.8454 172.29 56.9766C171.799 56.1111 171.55 55.1377 171.55 54.0598C171.55 52.982 171.795 51.989 172.29 51.1104C172.784 50.2318 173.462 49.5459 174.333 49.0494C175.201 48.5529 176.177 48.3047 177.257 48.3047C178.433 48.3047 179.442 48.5693 180.286 49.0984C181.128 49.6275 181.793 50.3788 182.281 51.3488L181.819 51.5546C180.896 49.7255 179.383 48.811 177.274 48.811C176.288 48.811 175.401 49.0363 174.612 49.4838C173.822 49.9346 173.203 50.5551 172.758 51.3554C172.313 52.1523 172.09 53.0538 172.09 54.0598C172.09 55.0658 172.313 55.9445 172.758 56.7316C173.203 57.5188 173.819 58.1361 174.612 58.5771C175.401 59.0213 176.288 59.2434 177.274 59.2434C178.174 59.2434 178.99 59.0409 179.723 58.6326C180.453 58.2243 181.043 57.6593 181.488 56.9374C181.934 56.2156 182.189 55.3859 182.251 54.4551H177.054V53.9782H182.792L182.775 54.2623C182.713 55.3402 182.435 56.294 181.95 57.1236C181.462 57.9532 180.814 58.5967 180.002 59.0572C179.189 59.5178 178.282 59.7464 177.274 59.7464C176.183 59.7464 175.201 59.5014 174.333 59.0082V59.0148Z" fill="#3F3F3F" stroke="#3F3F3F" stroke-width="1.08" stroke-miterlimit="10"/>
<path d="M194.773 48.4811H195.297L199.446 59.5798H198.906L197.793 56.5847H192.278L191.165 59.5798H190.625L194.773 48.4811ZM197.603 56.0915L195.029 49.0984L192.468 56.0915H197.603Z" fill="#3F3F3F" stroke="#3F3F3F" stroke-width="1.08" stroke-miterlimit="10"/>
<path d="M208.239 48.4811H208.763V59.0736H213.865V59.5798H208.239V48.4811Z" fill="#3F3F3F" stroke="#3F3F3F" stroke-width="1.08" stroke-miterlimit="10"/>
<path d="M86.0303 62.5065H215.092" stroke="#3F3F3F" stroke-width="0.98" stroke-miterlimit="10"/>
</g>
<defs>
<clipPath id="clip0_196_382">
<rect width="215.092" height="81" fill="white"/>
</clipPath>
</defs>
</svg>
