<svg width="200" height="82" viewBox="0 0 221 82" fill="none" xmlns="http://www.w3.org/2000/svg">
<g clip-path="url(#clip0_199_488)">
<path d="M137.877 41.6002C136.072 41.6002 134.417 40.3998 133.844 38.6455C133.292 37.3316 129.467 28.1409 128.979 25.7332C128.729 24.4973 127.181 23.2828 126.35 22.743H108.247C106.85 23.1337 105.84 24.3482 105.761 25.7403C105.675 27.2602 106.736 28.6807 108.254 29.114H122.167C122.396 29.114 122.625 29.1708 122.833 29.2773C125.297 30.5558 126.773 33.1269 126.587 35.8187C126.379 38.8231 124.13 40.7621 122.826 41.4297C122.618 41.5362 122.396 41.5931 122.167 41.5931H100.166C99.3782 41.5931 98.7334 40.9538 98.7334 40.1726C98.7334 39.3913 99.3782 38.7521 100.166 38.7521H121.765C122.331 38.3756 123.607 37.3529 123.721 35.627C123.821 34.1638 123.069 32.7575 121.78 31.955H108.061C107.946 31.955 107.839 31.9408 107.731 31.9194C104.765 31.2163 102.731 28.5529 102.896 25.5911C103.046 22.8993 105.038 20.5768 107.738 19.9446C107.846 19.9162 107.953 19.9091 108.068 19.9091H126.759C127.002 19.9091 127.246 19.973 127.461 20.0867C127.84 20.2998 131.207 22.2387 131.795 25.1792C132.167 27.0187 135.334 34.7818 136.516 37.6157C136.537 37.6583 136.552 37.7009 136.566 37.7506C136.76 38.3827 137.361 38.7947 137.97 38.7592C138.515 38.7165 138.995 38.3188 139.159 37.7577C139.174 37.7009 139.195 37.6512 139.217 37.5943L145.686 22.878C146.13 21.2657 147.505 20.0796 149.146 19.9162C151.087 19.7245 152.907 21.0029 153.43 22.9064L158.853 37.1327C159.097 37.7577 159.691 38.1981 160.365 38.2265C161.081 38.262 161.783 37.8074 162.055 37.1114L168.03 21.6634C168.309 20.9319 169.14 20.5625 169.878 20.8466C170.616 21.1307 170.989 21.9475 170.702 22.6791L164.72 38.1341C163.982 39.9879 162.163 41.1598 160.214 41.0533C158.423 40.968 156.84 39.8245 156.174 38.1412L150.722 23.8297C150.701 23.78 150.686 23.7232 150.672 23.6734C150.521 23.091 149.977 22.6791 149.433 22.7288C148.967 22.7785 148.559 23.155 148.437 23.6592C148.415 23.7374 148.394 23.8226 148.358 23.8936L141.875 38.6455C141.344 40.2791 139.876 41.451 138.178 41.5788C138.078 41.586 137.977 41.5931 137.87 41.5931L137.877 41.6002Z" fill="#3F3F3F"/>
<path d="M168.933 41.6001C168.754 41.6001 168.574 41.5646 168.403 41.5007C167.665 41.2095 167.306 40.3856 167.6 39.654L175.18 20.7898C175.473 20.0582 176.304 19.7031 177.042 19.9943C177.78 20.2855 178.138 21.1094 177.845 21.841L170.265 40.7052C170.043 41.2592 169.506 41.6001 168.933 41.6001Z" fill="#3F3F3F"/>
<path d="M175.875 41.8842C175.703 41.8842 175.523 41.8558 175.352 41.7848C174.614 41.5007 174.248 40.6768 174.542 39.9452L181.484 22.3594C182.057 20.6974 183.719 19.5468 185.546 19.6179C187.244 19.6818 188.748 20.8111 189.3 22.4162L195.239 37.7932C195.482 37.9636 195.869 38.1625 196.371 38.1767C196.936 38.198 197.395 37.9565 197.646 37.779L204.451 21.5853C204.494 21.4787 204.559 21.3722 204.631 21.2798C205.591 20.0156 207.116 19.4048 208.599 19.6818C210.011 19.9446 210.827 20.9176 211.114 21.3296C211.178 21.4219 211.236 21.5284 211.271 21.635L218.106 39.3131C218.392 40.0447 218.02 40.8685 217.282 41.1455C216.544 41.4296 215.713 41.0603 215.434 40.3288L208.671 22.8424C208.556 22.7146 208.349 22.5299 208.069 22.4802C207.711 22.4162 207.303 22.5725 207.009 22.885L200.146 39.2066C200.067 39.3912 199.952 39.5546 199.809 39.6895C199.358 40.1086 198.147 41.0958 196.27 41.0319C194.587 40.9822 193.448 40.0802 193.032 39.6895C192.875 39.5404 192.753 39.3628 192.681 39.1639L186.592 23.3893C186.398 22.8353 185.933 22.4802 185.417 22.4589C184.858 22.4589 184.342 22.7998 184.156 23.3396L177.193 40.9822C176.971 41.5433 176.433 41.8842 175.86 41.8842H175.875Z" fill="#3F3F3F"/>
<path d="M76.7472 42.1116C73.7885 42.1116 70.9803 41.032 68.7738 39.0291C66.4813 36.9552 65.156 34.171 65.0414 31.2021C64.9196 28.1197 66.1661 25.0585 68.4657 22.7999C70.8155 20.4916 74.0536 19.2628 77.3203 19.4049H87.0561C87.1134 19.4049 87.1779 19.4049 87.2352 19.4049C90.2226 19.4049 93.0595 20.5626 95.2301 22.6862C97.4438 24.8454 98.6617 27.7148 98.6617 30.7547C98.6617 33.7945 97.4438 36.664 95.2301 38.8231C93.0165 40.9823 90.1294 42.1542 87.0346 42.0974H77.3203C77.1269 42.1045 76.9406 42.1116 76.7472 42.1116ZM76.7902 22.2317C74.4476 22.2317 72.1623 23.1621 70.4788 24.817C68.7523 26.5145 67.8138 28.8015 67.8998 31.0885C67.9857 33.2903 68.9815 35.3713 70.708 36.9268C72.4918 38.5461 74.8058 39.3771 77.2129 39.2493H77.2845H87.0561C89.3629 39.299 91.5622 38.4112 93.2171 36.7918C94.872 35.1724 95.7889 33.0204 95.7889 30.7476C95.7889 28.4748 94.872 26.3227 93.2171 24.7033C91.5909 23.1124 89.456 22.2388 87.2066 22.2388C87.1636 22.2388 87.1206 22.2388 87.0704 22.2388H77.2057C77.0624 22.2317 76.9192 22.2246 76.783 22.2246L76.7902 22.2317Z" fill="#3F3F3F"/>
<path d="M33.6276 42.1825C32.8396 42.1825 32.1948 41.5433 32.1948 40.762V19.3196H57.3832L57.5838 19.3764C60.9222 20.3423 63.1931 23.4106 63.1 26.8269C63.014 30.1083 60.7932 32.9422 57.5838 33.8726L57.3904 33.9294L35.0676 34.0786V40.7691C35.0676 41.5504 34.4228 42.1896 33.6348 42.1896L33.6276 42.1825ZM35.0604 22.1606V31.2305L56.9534 31.0813C58.8375 30.4563 60.1771 28.6949 60.2273 26.7417C60.2846 24.6749 58.9449 22.814 56.9534 22.1535H35.0604V22.1606Z" fill="#3F3F3F"/>
<path d="M61.6671 43.3971C61.1441 43.3971 60.6212 43.2125 60.2057 42.8289L51.2293 34.6042C50.3553 33.8088 50.3051 32.4593 51.1075 31.5928C51.9098 30.7334 53.271 30.6765 54.145 31.472L63.1214 39.6967C63.9954 40.4922 64.0455 41.8417 63.2432 42.7082C62.8205 43.1627 62.2402 43.39 61.6671 43.39V43.3971Z" fill="#3F3F3F"/>
<path d="M1.43279 42.4951C0.644753 42.4951 0 41.8559 0 41.0746V19H24.5866L24.823 19.0852C28.1901 20.2713 30.4252 23.5314 30.2604 27.0116C30.11 30.2646 27.9751 33.0843 24.823 34.1923L24.5938 34.2704H2.86557V41.0746C2.86557 41.8559 2.22082 42.4951 1.43279 42.4951ZM2.86557 31.4294H24.078C25.9764 30.6694 27.3017 28.8654 27.3949 26.8767C27.4952 24.7104 26.1412 22.672 24.078 21.841H2.86557V31.4294Z" fill="#3F3F3F"/>
<path d="M144.611 48.9867H147.648L152.649 59.9174H149.891L148.659 57.4245H143.529L142.297 59.9174H139.596L144.597 48.9867H144.611ZM147.505 54.9954C147.04 54.0295 146.588 53.0351 146.123 51.9982H146.08C145.614 53.0351 145.163 54.0295 144.697 54.9954H147.512H147.505Z" fill="#3F3F3F"/>
<path d="M153 56.004C153 53.4258 155.106 51.8419 157.864 51.8419C159.913 51.8419 161.64 52.8221 162.306 54.3633L160.013 55.2582C159.648 54.3775 158.753 54.0792 157.85 54.0792C156.467 54.0792 155.529 54.9031 155.529 55.9827C155.529 57.1901 156.632 57.9004 157.943 57.9004C158.932 57.9004 159.791 57.5665 160.236 56.7213L162.528 57.6163C161.862 59.1575 160.128 60.1376 157.936 60.1376C155.149 60.1376 153 58.5822 153 55.9898V56.004Z" fill="#3F3F3F"/>
<path d="M163.345 57.7583C163.345 56.2171 164.756 55.7412 166.354 55.4429C167.851 55.173 169.183 55.1091 169.183 54.4628C169.183 54.0437 168.617 53.7312 167.743 53.7312C166.941 53.7312 166.217 54.0011 165.924 54.825L163.631 54.0934C164.226 52.4101 165.988 51.8348 167.786 51.8348C170.258 51.8348 171.662 52.9144 171.662 54.6758V57.4529C171.662 58.7172 171.777 59.2783 171.963 59.9033H169.534C169.391 59.6334 169.362 59.3564 169.362 59.0936H169.319C168.825 59.7683 167.751 60.1448 166.59 60.1448C164.921 60.1448 163.352 59.3777 163.352 57.7512L163.345 57.7583ZM167.242 58.3762C168.445 58.3762 169.19 57.7441 169.19 57.0339V56.5296C168.567 56.6858 167.958 56.8066 167.342 56.9344C166.733 57.0623 166.017 57.2398 166.017 57.7299C166.017 58.1632 166.554 58.3762 167.249 58.3762H167.242Z" fill="#3F3F3F"/>
<path d="M173.302 55.9756C173.302 53.3548 175.237 51.8419 177.572 51.8419C178.955 51.8419 179.879 52.3746 180.402 52.9073H180.445V48.7026H182.888V57.46C182.888 58.7385 183.002 59.2925 183.181 59.9104H180.767C180.624 59.5055 180.581 59.2925 180.595 59.1291H180.552C179.857 59.8891 178.74 60.1519 177.601 60.1519C174.957 60.1519 173.302 58.3762 173.302 55.9756ZM178.152 57.8933C179.521 57.8933 180.502 57.0694 180.502 55.9756C180.502 54.8818 179.499 54.0721 178.145 54.0721C176.791 54.0721 175.838 54.8605 175.838 55.9756C175.838 57.0907 176.784 57.8933 178.159 57.8933H178.152Z" fill="#3F3F3F"/>
<path d="M184.593 56.0324C184.593 53.6389 186.57 51.8419 189.342 51.8419C191.728 51.8419 193.92 53.3263 193.92 56.1176V56.6787H187.036C187.25 57.6163 188.296 58.0495 189.493 58.0495C190.41 58.0495 191.248 57.7725 191.656 57.0694L193.949 57.9643C193.325 59.1291 191.728 60.1518 189.521 60.1518C186.72 60.1518 184.585 58.5396 184.585 56.0324H184.593ZM191.463 55.1375C191.277 54.2284 190.36 53.8377 189.328 53.8377C188.139 53.8377 187.408 54.3846 187.15 55.1375H191.463Z" fill="#3F3F3F"/>
<path d="M195.675 52.0692H198.09V53.092H198.118C198.77 52.2965 199.909 51.8419 200.984 51.8419C202.13 51.8419 203.262 52.3178 203.785 53.1062H203.814C204.745 52.1402 205.92 51.8419 206.88 51.8419C208.563 51.8419 210.218 52.9783 210.218 54.9528V59.9104H207.775V55.9898C207.775 55.2582 207.503 54.0863 206.149 54.0863C205.146 54.0863 204.172 54.4485 204.172 55.9898V59.9104H201.729V55.9756C201.729 55.244 201.464 54.0863 200.103 54.0863C199.1 54.0863 198.125 54.4485 198.125 55.9898V59.9104H195.682V52.0621L195.675 52.0692Z" fill="#3F3F3F"/>
<path d="M214.782 60.3365L211.121 52.0692H213.822C214.567 53.6957 215.305 55.3364 216.086 57.1972H216.114C216.859 55.4003 217.612 53.7667 218.378 52.0692H221.007L216.129 63H213.514L214.789 60.3365H214.782Z" fill="#3F3F3F"/>
</g>
<defs>
<clipPath id="clip0_199_488">
<rect width="221" height="44" fill="white" transform="translate(0 19)"/>
</clipPath>
</defs>
</svg>
