<svg width="200" height="85" viewBox="0 0 347 85" fill="none" xmlns="http://www.w3.org/2000/svg">
<path d="M32.7299 0.00732422H1.69768C0.761858 0.00732422 0 0.801671 0 1.77741C0 2.7594 0.761858 3.55376 1.69768 3.55376H15.5131V49.0507H18.9145V3.55376H32.7299C33.6657 3.55376 34.4276 2.7594 34.4276 1.78367C34.4276 0.801673 33.6657 0.00732422 32.7299 0.00732422Z" fill="#808080"/>
<path d="M84.8188 0.00744629C83.877 0.00744629 83.1211 0.801793 83.1211 1.77753V49.0508H86.5225V1.77753C86.5225 0.795539 85.7606 0.00744629 84.8248 0.00744629H84.8188Z" fill="#808080"/>
<path d="M60.1927 25.6518L60.2946 25.6393C66.2815 24.8825 71.0386 19.6786 71.3566 13.5302C71.7045 6.80008 66.8454 0.864342 60.3006 0.0199536L46.2752 0.00744629H44.7995H44.5776H42.8799V42.99C42.8799 43.9719 43.6417 44.76 44.5776 44.76C45.5134 44.76 46.2752 43.9657 46.2752 42.99V3.55388H59.9827C64.7158 4.21688 68.2132 8.49512 67.9612 13.3425C67.7333 17.7646 64.3139 21.5112 59.9827 22.1054H51.5963C50.6544 22.1054 49.8986 22.8998 49.8986 23.8755C49.8986 24.8512 50.6604 25.6456 51.5963 25.6456H55.5855C59.9287 33.3076 64.2719 40.9759 68.6091 48.638H72.6643C68.1292 40.9759 63.594 33.3076 59.0589 25.6456H60.1927V25.6518Z" fill="#808080"/>
<path d="M98.1355 12.9169L107.146 4.22286L132.281 29.6734C132.611 30.0049 133.037 30.1737 133.463 30.1737C133.889 30.1737 134.315 30.0049 134.645 29.6734L159.882 4.24788L168.226 12.7418C168.898 13.4236 169.978 13.4111 170.632 12.7105C171.286 12.01 171.274 10.8842 170.602 10.2024L161.076 0.507554C160.416 -0.161702 159.366 -0.167959 158.706 0.501298L133.463 25.9268L108.352 0.501298C107.704 -0.155449 106.678 -0.167956 106.012 0.470027L95.8199 10.3087C95.1301 10.9717 95.0881 12.0976 95.724 12.8169C96.3598 13.5362 97.4396 13.5799 98.1295 12.9107L98.1355 12.9169Z" fill="#808080"/>
<path d="M168.226 27.3902C168.898 28.072 169.978 28.0595 170.632 27.359C171.286 26.6584 171.274 25.5326 170.602 24.8508L161.076 15.156C160.416 14.4867 159.366 14.4805 158.706 15.1497L133.463 40.5752L108.352 15.1497C107.704 14.493 106.678 14.4805 106.012 15.1185L95.8199 24.9572C95.1301 25.6202 95.0881 26.746 95.724 27.4653C96.3598 28.1846 97.4396 28.2284 98.1295 27.5591L107.14 18.865L132.275 44.3155C132.605 44.647 133.031 44.8159 133.457 44.8159C133.883 44.8159 134.309 44.647 134.639 44.3155L159.876 18.8901L168.22 27.384L168.226 27.3902Z" fill="#B6B6B6"/>
<path d="M107.422 27.9407L95.8502 38.6863C95.1483 39.3368 95.0883 40.4564 95.7122 41.1882C96.3361 41.92 97.4099 41.9825 98.1117 41.332L107.332 32.7756L123.511 49.0504H127.2C127.332 48.4624 127.182 47.8182 126.732 47.3679L107.422 27.9407Z" fill="#808080"/>
<path d="M159.768 27.9407L140.458 47.3679C140.008 47.8182 139.858 48.4624 139.99 49.0504H143.679L159.858 32.7756L169.079 41.332C169.78 41.9825 170.854 41.92 171.478 41.1882C172.102 40.4564 172.042 39.3368 171.34 38.6863L159.768 27.9407Z" fill="#808080"/>
<path d="M199.673 1.64599C198.96 -0.111592 196.578 -0.124102 195.846 1.62097L175.9 49.0506H179.295L187.298 30.0988H198.792C199.691 30.0988 200.423 29.3357 200.423 28.3975C200.423 27.4593 199.691 26.6962 198.792 26.6962H188.738L197.724 5.41759L213.357 43.3775C213.687 44.1782 214.581 44.5472 215.343 44.1969C216.098 43.8529 216.446 42.9397 216.122 42.1454L199.673 1.64599Z" fill="#808080"/>
<path d="M346.783 49.0506L326.837 1.62097C326.105 -0.124102 323.723 -0.111592 323.01 1.64599L306.561 42.1454C306.237 42.9335 306.585 43.8467 307.34 44.1969C308.108 44.5472 308.996 44.1782 309.326 43.3775L324.959 5.41759L333.945 26.6962H323.891C322.992 26.6962 322.26 27.4593 322.26 28.3975C322.26 29.3357 322.992 30.0988 323.891 30.0988H335.385L343.388 49.0506H346.783Z" fill="#808080"/>
<path d="M263.309 0.101034C262.529 0.101034 261.899 0.77029 261.899 1.59591V44.5659L229.955 0.757783C229.535 0.182347 228.803 -0.0553313 228.149 0.182348C227.489 0.413774 227.045 1.05801 227.045 1.78356V44.4846C227.045 45.4166 227.771 46.1734 228.665 46.1734C229.559 46.1734 230.285 45.4166 230.285 44.4846V6.7936L260.963 48.8629C261.203 49.1944 261.539 49.4071 261.899 49.4884V49.5197H262.163C262.193 49.5197 262.223 49.5322 262.253 49.5322C262.295 49.5322 262.337 49.5259 262.379 49.5197H264.724V1.60217C264.724 0.776546 264.095 0.10729 263.315 0.10729L263.309 0.101034Z" fill="#808080"/>
<path d="M307.172 3.46569C308.066 3.46569 308.792 2.70887 308.792 1.77691C308.792 0.844955 308.066 0.0881348 307.172 0.0881348H274.083C273.189 0.0881348 272.463 0.844955 272.463 1.77691C272.463 2.70887 273.189 3.46569 274.083 3.46569H289.008V49.0502H292.247V3.46569H307.172Z" fill="#808080"/>
<path d="M48.7527 73.8192H50.6724C53.5458 73.8192 55.0635 75.3829 55.0635 78.0287C55.0635 81.9566 52.9639 84.6149 49.4606 84.6149H46.6831L48.7527 73.813V73.8192ZM49.4546 83.5704C52.1361 83.5704 53.8098 81.3312 53.8098 78.11C53.8098 76.0772 52.706 74.8638 50.6304 74.8638H49.7725L48.1048 83.5704H49.4606H49.4546Z" fill="#B6B6B6"/>
<path d="M61.7224 73.8193H62.9522L60.8826 84.6213H59.6528L61.7224 73.8193Z" fill="#B6B6B6"/>
<path d="M66.8996 82.9139L67.7994 82.2008C68.4173 83.1516 69.3171 83.7207 70.4629 83.7207C71.7287 83.7207 72.6825 82.9264 72.6825 81.6942C72.6825 80.8936 72.1726 80.3995 71.3927 79.9179L70.1869 79.1673C69.2991 78.6044 68.5912 77.8413 68.5912 76.6216C68.5912 74.9954 69.953 73.6256 71.8126 73.6256C73.0544 73.6256 74.0922 74.2698 74.7401 75.1518L73.9422 75.9086C73.4143 75.2518 72.6825 74.7327 71.7167 74.7327C70.5529 74.7327 69.839 75.6146 69.839 76.484C69.839 77.3534 70.4209 77.76 71.1828 78.2291L72.3885 78.9734C73.3723 79.5801 73.9362 80.3057 73.9362 81.5128C73.9362 83.4393 72.4485 84.8153 70.3489 84.8153C68.9272 84.8153 67.7274 84.1961 66.8936 82.9139H66.8996Z" fill="#B6B6B6"/>
<path d="M79.2275 80.4617C79.2275 77.0591 81.3631 73.619 84.5725 73.619C85.7543 73.619 86.6002 74.307 87.1221 75.2202L86.2582 75.8957C85.8563 75.2015 85.2984 74.7261 84.5065 74.7261C82.047 74.7261 80.4813 77.7221 80.4813 80.3366C80.4813 82.3006 81.2672 83.7079 83.1148 83.7079C83.9487 83.7079 84.6385 83.3389 85.3104 82.7447L85.8743 83.5703C85.1064 84.2521 84.1526 84.815 82.8989 84.815C80.5413 84.815 79.2275 83.0449 79.2275 80.4617Z" fill="#B6B6B6"/>
<path d="M93.2529 73.8193H96.0903C98.022 73.8193 99.3237 74.5324 99.3237 76.34C99.3237 78.7606 97.4161 80.0428 95.1065 80.0428H93.2829L92.407 84.6213H91.1772L93.2469 73.8193H93.2529ZM95.0465 79.0045C97.0202 79.0045 98.106 78.0413 98.106 76.5026C98.106 75.3205 97.3081 74.8514 95.7844 74.8514H94.2727L93.4988 79.0045H95.0525H95.0465ZM94.9925 79.7864L95.9344 79.0295L98.094 84.615H96.7802L94.9925 79.7864Z" fill="#B6B6B6"/>
<path d="M105.64 73.8192H111.351L111.141 74.9013H106.648L105.982 78.3977H109.786L109.576 79.4798H105.79L104.993 83.5328H109.63L109.42 84.6149H103.571L105.64 73.813V73.8192Z" fill="#B6B6B6"/>
<path d="M119.054 74.9202H116.048L116.258 73.8193H123.499L123.289 74.9202H120.284L118.436 84.615H117.206L119.054 74.9202Z" fill="#B6B6B6"/>
<path d="M129.701 73.8193H131.117L132.317 84.6213H131.045L130.511 78.4228C130.421 77.2782 130.307 76.1336 130.229 74.9077H130.163C129.611 76.1461 129.089 77.2407 128.508 78.4228L125.448 84.6213H124.086L129.713 73.8193H129.701ZM126.84 80.2492H131.387L131.165 81.2437H126.6L126.84 80.2492Z" fill="#B6B6B6"/>
<path d="M139.222 73.8193H140.686L141.586 79.655L141.933 81.8817H141.999L143.109 79.655L146.187 73.8193H147.65L145.581 84.6213H144.411L145.593 78.5291C145.791 77.5534 146.097 76.3025 146.343 75.358H146.283L145.035 77.7536L141.981 83.4892H141.292L140.332 77.7536L139.978 75.358H139.918C139.792 76.3212 139.648 77.5659 139.474 78.5291L138.298 84.6213H137.152L139.222 73.8193Z" fill="#B6B6B6"/>
<path d="M153.973 73.8192H159.684L159.474 74.9013H154.981L154.315 78.3977H158.119L157.909 79.4798H154.123L153.326 83.5328H157.963L157.753 84.6149H151.904L153.973 73.813V73.8192Z" fill="#B6B6B6"/>
<path d="M165.539 73.8192H166.775L169.132 80.737L169.798 82.9949H169.864C169.996 81.9254 170.122 80.6682 170.332 79.5486L171.436 73.8192H172.618L170.548 84.6212H169.336L166.997 77.7222L166.325 75.4017H166.259C166.127 76.515 165.971 77.7159 165.755 78.8105L164.651 84.6149H163.469L165.539 73.813V73.8192Z" fill="#B6B6B6"/>
<path d="M180.789 74.9202H177.783L177.993 73.8193H185.234L185.024 74.9202H182.018L180.171 84.615H178.941L180.789 74.9202Z" fill="#B6B6B6"/>
<path d="M190.615 73.8192H196.326L196.116 74.9013H191.623L190.957 78.3977H194.76L194.55 79.4798H190.765L189.967 83.5328H194.61L194.4 84.6149H188.551L190.621 73.813L190.615 73.8192Z" fill="#B6B6B6"/>
<path d="M208.839 73.8192H214.55L214.34 74.9013H209.847L209.181 78.3977H212.985L212.775 79.4798H208.989L208.192 83.5328H212.835L212.625 84.6149H206.776L208.846 73.813L208.839 73.8192Z" fill="#B6B6B6"/>
<path d="M220.411 73.8193H226.122L225.912 74.9014H221.419L220.711 78.648H224.515L224.305 79.7301H220.519L219.572 84.6213H218.342L220.411 73.8193Z" fill="#B6B6B6"/>
<path d="M231.503 73.8193H232.733L230.663 84.6213H229.434L231.503 73.8193Z" fill="#B6B6B6"/>
<path d="M237.388 80.4617C237.388 77.0591 239.523 73.619 242.733 73.619C243.914 73.619 244.76 74.307 245.282 75.2202L244.418 75.8957C244.022 75.2015 243.465 74.7261 242.667 74.7261C240.207 74.7261 238.641 77.7221 238.641 80.3366C238.641 82.3006 239.427 83.7079 241.275 83.7079C242.109 83.7079 242.799 83.3389 243.471 82.7447L244.034 83.5703C243.267 84.2521 242.313 84.815 241.059 84.815C238.701 84.815 237.388 83.0449 237.388 80.4617Z" fill="#B6B6B6"/>
<path d="M251.419 73.8193H252.649L250.579 84.6213H249.349L251.419 73.8193Z" fill="#B6B6B6"/>
<path d="M259.02 73.8192H264.731L264.521 74.9013H260.027L259.362 78.3977H263.165L262.955 79.4798H259.17L258.372 83.5328H263.015L262.805 84.6149H256.956L259.026 73.813L259.02 73.8192Z" fill="#B6B6B6"/>
<path d="M270.592 73.8192H271.827L274.185 80.737L274.851 82.9949H274.917C275.049 81.9254 275.175 80.6682 275.385 79.5486L276.488 73.8192H277.67L275.601 84.6212H274.389L272.049 77.7222L271.377 75.4017H271.311C271.179 76.515 271.024 77.7159 270.808 78.8105L269.704 84.6149H268.522L270.592 73.813V73.8192Z" fill="#B6B6B6"/>
<path d="M285.835 74.9202H282.83L283.04 73.8193H290.28L290.07 74.9202H287.065L285.217 84.615H283.987L285.835 74.9202Z" fill="#B6B6B6"/>
<path d="M295.661 73.8194H301.372L301.162 74.9014H296.669L296.003 78.3978H299.806L299.597 79.4799H295.811L295.013 83.533H299.657L299.447 84.615H293.598L295.667 73.8131L295.661 73.8194Z" fill="#B6B6B6"/>
</svg>
