<svg width="667" height="212" viewBox="0 0 667 212" fill="none" xmlns="http://www.w3.org/2000/svg">
<path d="M379.578 171.22H375.761L376.442 167.851H384.583L382.596 178.153C382.363 179.224 382.012 180.217 382.012 180.217H382.11C383.726 177.919 386.706 176.303 389.724 176.303C395.119 176.303 398.235 179.945 398.235 185.67C398.235 194.259 392.119 200.159 385.81 200.159C382.713 200.159 380.006 198.757 378.877 196.011H378.779C378.779 196.011 378.74 196.868 378.565 197.861L378.215 199.614H374.125L379.617 171.201L379.578 171.22ZM385.381 196.381C389.257 196.381 393.755 192.506 393.755 185.982C393.755 182.34 391.808 180.12 388.614 180.12C383.882 180.12 380.24 185.164 380.24 190.617C380.24 193.772 381.778 196.381 385.362 196.381H385.381Z" fill="#F5F5F5"/>
<path d="M402.461 205.437C404.389 205.437 406.162 204.093 407.272 202.282L408.615 200.023L404.526 180.217H401.644L402.325 176.848H412.549L411.926 180.217H408.907L411.342 193.772C411.517 194.765 411.381 195.758 411.381 195.758H411.517C411.517 195.758 411.868 194.765 412.452 193.772L420.105 180.217H417.184L417.866 176.848H428.09L427.408 180.217H424.623L411.069 203.217C408.674 207.306 405.675 209.079 402.384 209.079C399.092 209.079 397.437 207.599 397.437 207.599L399.462 204.444C399.462 204.444 400.533 205.437 402.481 205.437H402.461Z" fill="#F5F5F5"/>
<path d="M446.552 153.888H531.188V161.736H448.499" fill="#F5F5F5"/>
<path d="M497.731 174.336H501.431V166.488H484.215V174.336H487.429L485.033 185.573C484.838 186.508 484.722 187.579 484.663 188.397L484.546 189.838H484.293C484.293 189.332 484.293 188.825 484.235 188.397C484.176 187.579 484.04 186.508 483.806 185.573L479.347 166.468H470.057L465.598 185.573C465.403 186.508 465.228 187.579 465.15 188.397C465.091 188.825 465.091 189.332 465.091 189.838H464.838L464.721 188.397C464.663 187.579 464.526 186.508 464.351 185.573L461.956 174.336H465.169V166.488H447.954V174.336H451.654L457.808 198.835H470.369L474.011 183.879C474.264 182.808 474.458 181.814 474.517 180.996C474.575 180.548 474.575 180.062 474.575 179.614H474.828L474.945 180.996C475.004 181.814 475.14 182.885 475.393 183.879L479.035 198.835H491.596L497.75 174.336H497.731ZM523.242 178.659H513.953C514.518 176.147 515.959 173.888 519.172 173.888C521.626 173.888 523.262 176.089 523.262 178.659M534.382 183.372C534.44 182.671 534.499 181.873 534.499 181.366C534.499 172.389 529.104 165.728 519.425 165.728C509.006 165.728 502.599 173.148 502.599 182.632C502.599 191.24 508.812 199.595 520.38 199.595C524.839 199.595 528.169 198.523 530.623 197.336C532.006 196.654 533.272 195.894 534.323 195.077L530.37 187.54C529.552 188.105 528.617 188.611 527.605 189.039C525.91 189.799 523.71 190.617 521.256 190.617C517.75 190.617 514.537 188.864 513.719 184.658H534.265L534.382 183.392V183.372ZM562.698 182.866C562.698 187.89 559.815 190.597 556.349 190.597C552.084 190.597 550 186.702 550 182.866C550 177.335 553.077 174.881 556.349 174.881C560.108 174.881 562.698 178.017 562.698 182.866ZM573.623 182.671C573.623 172.622 567.839 165.709 559.056 165.709C556.232 165.709 553.973 166.468 552.532 167.403C551.714 167.91 550.955 168.474 550.331 169.156H550.215C550.215 168.961 550.215 168.708 550.273 168.396C550.331 167.89 550.331 167.208 550.331 166.39V153.888H535.063V161.736H539.465V198.796H549.65V196.284C549.65 196.031 549.65 195.778 549.591 195.602H549.708C550.273 196.284 550.896 196.985 551.714 197.55C553.155 198.562 555.297 199.556 558.55 199.556C567.157 199.556 573.623 192.895 573.623 182.652M580.906 162.379H591.52V153.907H580.906V162.379ZM576.7 198.816H595.727V190.967H591.656V166.468H576.388V174.317H580.79V190.967H576.7V198.816ZM621.998 161.814L622.621 161.931V153.381L621.55 153.265C620.868 153.206 619.972 153.148 618.784 153.148C613.76 153.148 604.471 154.53 604.471 165.144V166.468H600.069V174.317H604.471V190.967H600.381V198.816H620.109V190.967H615.337V174.317H621.998V166.468H615.337V164.91C615.337 161.833 618.414 161.775 619.992 161.775C620.927 161.775 621.569 161.775 621.998 161.833M663.985 174.336V166.488H647.217V174.336H650.177L646.341 186.332C646.029 187.267 645.776 188.338 645.581 189.156C645.465 189.585 645.387 190.091 645.328 190.539H645.075C645.075 190.091 645.017 189.604 644.958 189.156C644.764 188.338 644.647 187.267 644.335 186.332L640.382 174.336H643.517V166.488H625.737V174.336H629.379L640.051 200.335L639.934 200.646C638.999 202.652 636.857 203.275 634.598 203.275C632.903 203.275 460.593 203.275 458.957 203.275L461.157 212H635.182C641.531 212 647.237 209.351 650.255 201.639L660.674 174.317H664.004L663.985 174.336Z" fill="#F5F5F5"/>
<path d="M0 94.0628H12.6V22.3769H0V1.88966H56.0867C62.5523 1.88966 69.3294 2.04545 74.9965 4.40187C88.395 9.44578 96.7496 23.1559 96.7496 39.8651C96.7496 56.5742 87.9276 71.2191 74.5291 75.7956C69.3294 77.5288 63.6623 78.152 56.8852 78.152H40.8187V94.0628H53.4187V114.55H0V94.0628ZM52.7761 56.0874C57.1968 56.0874 59.709 55.4642 62.7081 53.7309C66.9535 51.0434 68.6868 46.019 68.6868 39.8651C68.6868 33.7111 66.7977 28.9982 63.1755 26.4665C60.488 24.7333 57.1968 23.9543 53.2434 23.9543H40.7992V56.1068H52.7761V56.0874Z" fill="#F5F5F5"/>
<path d="M95.0356 94.0621H104.325L135.056 1.88904H167.208L197.939 94.0621H207.229V114.549H160.12V94.0621H169.896L165.65 79.0862H136.653L132.407 94.0621H142.184V114.549H95.0746V94.0621H95.0356ZM159.477 57.6642L153.654 36.8654C152.544 33.2431 152.388 30.3998 151.921 28.355L151.453 25.0443H150.83C150.83 26.1543 150.674 27.2449 150.519 28.355C150.051 30.3998 149.74 33.2431 148.63 36.8654L142.651 57.6642H159.516H159.477Z" fill="#F5F5F5"/>
<path d="M226.763 94.062H239.363V68.3751L211.787 22.3567H202.186V1.86948H248.828V22.3567H239.382L250.892 43.1555C252.002 44.8888 252.314 45.9988 252.781 47.0894C253.093 47.5568 253.248 48.1994 253.404 48.6668H253.716C253.872 48.1994 254.027 47.5568 254.339 47.0894L256.228 43.1555L267.737 22.3567H258.292V1.86948H304.778V22.3567H295.158L267.582 68.3751V94.062H280.182V114.549H226.763V94.062Z" fill="#F5F5F5"/>
<path d="M417.437 52.7758C407.505 53.7301 403.805 55.9307 396.833 63.3311C391.438 68.8424 386.453 74.8405 380.338 81.7735C388.693 91.5497 396.482 103.682 401.76 114.861L400.475 116.75C384.876 116.75 376.054 113.128 374.379 111.083C372.529 109.038 368.906 103.682 364.233 97.9958C352.217 110.752 340.921 116.75 330.522 116.75C309.256 116.75 300.337 101.151 302.751 87.4405C305.088 74.1978 314.28 68.5308 329.86 58.7545C324.485 52.6006 321.603 45.6676 323.239 36.3783C325.731 22.2008 340.98 9.89286 356.579 9.89286C372.178 9.89286 381.487 19.6691 379.17 32.7365C378.196 38.2478 374.963 42.3569 370.25 45.8234C366.433 48.6667 361.467 51.8216 355.995 55.1128C359.89 58.8909 367.485 66.7781 376.521 77.1775C380.085 73.0878 383.376 68.6671 386.628 63.6232C391.185 56.5344 390.504 54.1585 379.871 52.7564L380.981 47.4008H418.313L417.379 52.7564L417.437 52.7758ZM360.825 93.2829C351.399 81.4618 344.602 74.5289 333.249 62.8637C328.185 67.4402 324.66 74.0615 323.57 80.196C320.902 95.3278 330.055 102.416 340.766 102.416C347.543 102.416 356.014 98.171 360.805 93.2829H360.825ZM340.96 29.9322C339.578 37.8194 342.888 43.1749 352.119 51.5295C356.832 48.063 361.72 41.7533 363.454 31.9965C364.875 23.9535 362.012 16.0858 353.969 16.0858C347.971 16.0858 342.246 22.7071 340.96 29.9517V29.9322Z" fill="#F5F5F5"/>
<path d="M487.7 0C508.343 0 533.076 7.71193 533.076 22.0647V40.3513H507.875V32.1525C507.875 26.4854 499.521 23.6421 489.277 23.6421C468.634 23.6421 456.502 34.9763 456.502 56.262C456.502 77.5477 468.634 92.8158 490.855 92.8158C498.411 92.8158 510.388 90.9267 510.388 84.617V76.905H492.276V56.4178H535.607V93.9258C535.607 110.791 503.786 116.458 487.388 116.458C452.724 116.458 427.348 91.5694 427.348 57.5279C427.348 23.4863 452.392 0.0194639 487.7 0.0194639V0Z" fill="#F5F5F5"/>
<path d="M607.604 0C642.113 0 666.846 25.2195 666.846 57.5084C666.846 89.7972 642.113 116.438 607.604 116.438C573.095 116.438 548.363 90.5956 548.363 57.5084C548.363 24.4211 573.095 0 607.604 0ZM607.604 92.0173C624.158 92.0173 637.693 77.1971 637.693 57.5084C637.693 37.8196 624.138 24.4211 607.604 24.4211C591.07 24.4211 577.516 38.5986 577.516 57.5084C577.516 76.4182 591.07 92.0173 607.604 92.0173Z" fill="#F5F5F5"/>
</svg>
