<svg width="130" height="130" viewBox="0 0 130 130" fill="none" xmlns="http://www.w3.org/2000/svg">
<path d="M60.5565 69.4455V51.6673C60.5565 49.2228 58.5564 47.2227 56.1119 47.2227H38.3335V38.3336H60.5565V29.4445H49.445V24.9999H40.5558V29.4445H33.8889C31.4444 29.4445 29.4443 31.4446 29.4443 33.8891V51.6673C29.4443 54.1118 31.4444 56.1119 33.8889 56.1119H51.6673V65.001H29.4443V73.8901H40.5558V78.3347H49.445V73.8901H56.1119C58.5564 73.8901 60.5565 71.8901 60.5565 69.4455Z" fill="#CDCDCD"/>
<path d="M94.2896 67.3102L69.1332 92.422L56.555 79.8439L50.2881 86.1551L69.1332 105L100.556 73.577L94.2896 67.3102Z" fill="#CDCDCD"/>
</svg>
