<svg width="132" height="130" viewBox="0 0 132 130" fill="none" xmlns="http://www.w3.org/2000/svg">
<path d="M0 72.0432H2.45634V57.9607H0V53.9361H10.934C12.1944 53.9361 13.5156 53.9667 14.6204 54.4296C17.2324 55.4205 18.8611 58.1138 18.8611 61.3962C18.8611 64.6787 17.1412 67.5556 14.5292 68.4547C13.5156 68.7952 12.4108 68.9176 11.0896 68.9176H7.95749V72.0432H10.4138V76.0679H0V72.0432ZM10.2885 64.5831C11.1504 64.5831 11.6401 64.4606 12.2248 64.1201C13.0524 63.5922 13.3903 62.6052 13.3903 61.3962C13.3903 60.1873 13.022 59.2615 12.3159 58.7641C11.792 58.4237 11.1503 58.2706 10.3797 58.2706H7.95369V64.5869H10.2885V64.5831Z" fill="#E6E6E6"/>
<path d="M18.5273 72.0431H20.3383L26.3292 53.936H32.5972L38.5881 72.0431H40.399V76.0678H31.2153V72.0431H33.1211L32.2935 69.1012H26.6405L25.8128 72.0431H27.7187V76.0678H18.5349V72.0431H18.5273ZM31.09 64.8929L29.9548 60.807C29.7384 60.0954 29.7081 59.5369 29.6169 59.1352L29.5258 58.4848H29.4043C29.4043 58.7029 29.374 58.9171 29.3436 59.1352C29.2525 59.5369 29.1917 60.0954 28.9753 60.807L27.8098 64.8929H31.0976H31.09Z" fill="#E6E6E6"/>
<path d="M44.2072 72.0431H46.6636V66.9969L41.2877 57.9568H39.416V53.9321H48.5087V57.9568H46.6674L48.9111 62.0426C49.1275 62.3831 49.1882 62.6012 49.2794 62.8154C49.3401 62.9073 49.3705 63.0335 49.4008 63.1253H49.4616C49.492 63.0335 49.5223 62.9073 49.5831 62.8154L49.9513 62.0426L52.1951 57.9568H50.3538V53.9321H59.416V57.9568H57.5406L52.1647 66.9969V72.0431H54.621V76.0677H44.2072V72.0431Z" fill="#E6E6E6"/>
<path d="M82.8477 62.9284C80.9115 63.1158 80.1901 63.5481 78.831 65.0019C77.7793 66.0846 76.8074 67.2629 75.6153 68.6249C77.244 70.5454 78.7626 72.9288 79.7915 75.1248L79.5409 75.4958C76.4999 75.4958 74.7801 74.7843 74.4536 74.3826C74.0929 73.9809 73.3868 72.9288 72.4756 71.8117C70.1332 74.3175 67.9312 75.4958 65.9038 75.4958C61.7581 75.4958 60.0193 72.4314 60.49 69.7381C60.9456 67.1367 62.7376 66.0234 65.7748 64.1029C64.7269 62.8939 64.165 61.532 64.484 59.7071C64.9699 56.922 67.9426 54.5042 70.9836 54.5042C74.0246 54.5042 75.8393 56.4247 75.3875 58.9917C75.1977 60.0744 74.5675 60.8816 73.6487 61.5626C72.9046 62.1211 71.9365 62.7409 70.8697 63.3875C71.629 64.1296 73.1096 65.6791 74.8712 67.722C75.566 66.9186 76.2076 66.0502 76.8416 65.0593C77.73 63.6667 77.5971 63.2 75.5242 62.9245L75.7406 61.8725H83.0185L82.8363 62.9245L82.8477 62.9284ZM71.8112 70.8859C69.9737 68.5636 68.6487 67.2017 66.4354 64.9101C65.4483 65.8091 64.7611 67.1099 64.5485 68.315C64.0284 71.2876 65.8127 72.6801 67.9008 72.6801C69.222 72.6801 70.8735 71.8461 71.8074 70.8859H71.8112ZM67.9388 58.4408C67.6692 59.9902 68.3146 61.0423 70.1142 62.6835C71.0329 62.0026 71.9859 60.763 72.3237 58.8463C72.6009 57.2663 72.0428 55.7207 70.4748 55.7207C69.3055 55.7207 68.1893 57.0215 67.9388 58.4446V58.4408Z" fill="#CDCDCD"/>
<path d="M95.7839 53.5611C99.8083 53.5611 104.63 55.0761 104.63 57.8956V61.488H99.7171V59.8773C99.7171 58.7641 98.0884 58.2055 96.0915 58.2055C92.0672 58.2055 89.7019 60.4321 89.7019 64.6136C89.7019 68.7951 92.0672 71.7945 96.399 71.7945C97.872 71.7945 100.207 71.4234 100.207 70.1838V68.6688H96.6761V64.6442H105.123V72.0125C105.123 75.3256 98.9199 76.4389 95.7232 76.4389C88.9654 76.4389 84.0186 71.5496 84.0186 64.8623C84.0186 58.1749 88.9009 53.5649 95.7839 53.5649V53.5611Z" fill="#E6E6E6"/>
<path d="M119.159 53.5611C125.887 53.5611 130.708 58.5154 130.708 64.8584C130.708 71.2015 125.887 76.435 119.159 76.435C112.432 76.435 107.61 71.3583 107.61 64.8584C107.61 58.3585 112.432 53.5611 119.159 53.5611ZM119.159 71.6376C122.386 71.6376 125.025 68.7262 125.025 64.8584C125.025 60.9906 122.383 58.3585 119.159 58.3585C115.936 58.3585 113.294 61.1437 113.294 64.8584C113.294 68.5732 115.936 71.6376 119.159 71.6376Z" fill="#E6E6E6"/>
</svg>
