<svg width="130" height="130" viewBox="0 0 130 130" fill="none" xmlns="http://www.w3.org/2000/svg">
<path d="M41.75 105.833C38.5208 105.833 35.776 104.642 33.5156 102.26C31.2552 99.8785 30.125 96.9861 30.125 93.5833V89.5C30.125 87.2542 30.8839 85.3316 32.4016 83.7323C33.9193 82.133 35.7437 81.3333 37.875 81.3333H41.75V32.3333C41.75 30.0875 42.5089 28.1649 44.0266 26.5656C45.5443 24.9663 47.3687 24.1667 49.5 24.1667H92.125C94.2562 24.1667 96.0807 24.9663 97.5984 26.5656C99.1161 28.1649 99.875 30.0875 99.875 32.3333V93.5833C99.875 96.9861 98.7448 99.8785 96.4844 102.26C94.224 104.642 91.4792 105.833 88.25 105.833H41.75ZM88.25 97.6667C89.3479 97.6667 90.2682 97.2753 91.0109 96.4927C91.7536 95.7101 92.125 94.7403 92.125 93.5833V32.3333H49.5V81.3333H76.625C78.7562 81.3333 80.5807 82.133 82.0984 83.7323C83.6161 85.3316 84.375 87.2542 84.375 89.5V93.5833C84.375 94.7403 84.7464 95.7101 85.4891 96.4927C86.2318 97.2753 87.1521 97.6667 88.25 97.6667ZM57.25 52.75C56.1521 52.75 55.2318 52.3587 54.4891 51.576C53.7464 50.7934 53.375 49.8236 53.375 48.6667C53.375 47.5097 53.7464 46.5399 54.4891 45.7573C55.2318 44.9746 56.1521 44.5833 57.25 44.5833H84.375C85.4729 44.5833 86.3932 44.9746 87.1359 45.7573C87.8786 46.5399 88.25 47.5097 88.25 48.6667C88.25 49.8236 87.8786 50.7934 87.1359 51.576C86.3932 52.3587 85.4729 52.75 84.375 52.75H57.25ZM57.25 65C56.1521 65 55.2318 64.6087 54.4891 63.826C53.7464 63.0434 53.375 62.0736 53.375 60.9167C53.375 59.7597 53.7464 58.7899 54.4891 58.0073C55.2318 57.2246 56.1521 56.8333 57.25 56.8333H84.375C85.4729 56.8333 86.3932 57.2246 87.1359 58.0073C87.8786 58.7899 88.25 59.7597 88.25 60.9167C88.25 62.0736 87.8786 63.0434 87.1359 63.826C86.3932 64.6087 85.4729 65 84.375 65H57.25Z" fill="#00025B"/>
</svg>
