<svg width="64" height="82" viewBox="0 0 64 82" fill="none" xmlns="http://www.w3.org/2000/svg">
<g clip-path="url(#clip0_196_440)">
<path d="M0 0L17.69 0.131408V5.65055L23.3259 5.25764L23.1935 0.131408L40.4917 0C40.5468 0.763481 40.6201 5.54805 40.8757 5.72545L45.9927 5.78327L46.1709 0.32852L46.3386 0.151119L63.4219 0.395539V16.493C60.7343 20.2132 57.4387 23.4564 54.1877 26.6811C53.9283 26.9387 53.37 27.1555 53.332 27.534L62.5728 64.3821C61.5087 66.3283 59.8262 67.8605 58.183 69.3191C59.5013 70.7318 61.3449 72.2482 62.0801 74.0813C63.0838 76.586 62.481 79.3824 62.637 82L56.608 81.7372C56.5569 79.473 56.8098 75.8199 55.1705 74.0459C53.5469 72.2889 49.9185 72.4033 47.6988 72.2745C48.0552 70.3099 49.8674 69.3441 51.1739 68.0734C51.8107 67.4544 56.0524 63.298 56.0746 62.888L46.9099 25.9557C49.0537 23.4248 51.6967 21.2868 53.9898 18.861C55.2596 17.518 56.4442 16.0515 57.6549 14.652V6.04609H52.2169C52.0295 6.16173 52.0361 6.30759 52.0138 6.49945C51.8303 8.06583 52.175 9.96994 52.0204 11.5652H35.0511C35.0183 11.5652 34.9462 11.7203 34.8532 11.6414L34.5924 5.91468H29.0889L28.9592 11.5665L11.7999 11.4273L11.6623 5.65186L6.41688 5.57433C6.20329 5.73991 6.16922 6.83979 6.15481 7.15517C6.00542 10.3839 6.16791 13.8294 6.15874 17.0844C4.11456 17.087 2.01928 16.9766 0 17.2158L0 0Z" fill="#3F3F3F"/>
<path d="M6.15874 17.0844C8.06794 17.0818 10.0492 17.1935 11.9244 16.953V22.8664L17.5445 23.1436C17.5603 25.0201 17.5734 26.9045 17.559 28.7797C15.6838 28.7797 13.7929 28.7679 11.9244 28.7797V34.2989H17.4279C17.4463 33.8429 17.4004 33.3777 17.4279 32.9204C17.5144 31.5485 17.5472 30.1832 17.5576 28.7797H23.5853L23.4543 34.2989H29.0889L28.9539 39.8772C28.9421 39.9889 29.0823 40.2122 29.1544 40.2122H34.7235C34.7562 42.2215 34.7117 44.2425 34.7235 46.257C36.6471 46.2268 38.5642 46.0809 40.4904 46.1243L40.3528 52.0311L34.7864 51.9076C34.6999 50.0324 34.7366 48.1388 34.7248 46.2557C32.8772 46.2846 31.0217 46.2399 29.1714 46.2478C29.1138 46.2636 28.9592 46.6802 28.9592 46.7156V51.972L28.7521 52.1546L23.5866 52.0377V46.4528C23.4713 46.2649 23.3259 46.2715 23.1346 46.2491C21.549 46.0625 19.2375 46.261 17.5629 46.2557L17.5655 40.2109H17.4266L11.9204 40.2083V40.2109L11.9178 46.2557C10.0034 46.2518 8.07712 46.261 6.15743 46.2557C6.16267 44.2425 6.15349 42.2228 6.15743 40.2096H0V34.2976C2.05073 34.3041 4.10801 34.2897 6.15874 34.2976C6.17184 36.203 6.18232 38.1294 6.20329 40.0138L6.35529 40.2109H11.7933V34.2976C9.92474 34.3055 8.03387 34.3055 6.15874 34.2976C6.14694 32.4657 6.18101 30.626 6.14432 28.7942L0 28.7784V22.7336L6.16005 22.8664C6.16267 20.9412 6.15349 19.0095 6.16005 17.0831L6.15874 17.0844ZM11.9244 22.8664H6.15874V28.6483H11.9244V22.8664ZM17.4214 34.2989V40.2122H23.4648V34.2989H17.4214ZM23.4491 40.2122V46.2623H28.9592V40.2122H23.4491Z" fill="#3F3F3F"/>
<path d="M6.15874 46.257C6.15349 48.1821 6.16267 50.1138 6.15874 52.039H0.327592C-0.108761 51.1822 0.238487 49.9233 0.136278 48.9404L0 48.6224V46.1256C2.02976 46.3556 4.10932 46.2518 6.15874 46.257Z" fill="#3F3F3F"/>
<path d="M37.6776 16.6514L37.675 22.44L32.0312 22.4374L32.0339 16.6514C33.9143 16.6554 35.7973 16.6462 37.6776 16.6514Z" fill="#3F3F3F"/>
<path d="M0 55.9812C0.338075 55.7998 0.676151 55.6342 1.0483 55.5212C4.08311 54.5948 12.3096 54.5186 15.271 55.583C15.575 55.6921 15.883 55.8143 16.1175 56.0482V72.1457H11.2692V67.8749L11.0779 67.7264L4.45526 67.6778V72.1457L0 72.2771V55.9825L0 55.9812ZM11.2692 58.6093H4.45526V63.8657H11.2692V58.6093Z" fill="#3F3F3F"/>
<path d="M23.718 54.9299L25.8159 59.6606L28.5008 54.9299H34.2009L29.6448 63.2533L34.5927 72.2758L28.3934 72.1588L25.943 66.7566L22.9318 72.08L17.2959 72.214C17.0928 72.0603 17.5134 71.4321 17.6208 71.2206C19.0138 68.4886 20.7408 65.9051 22.1233 63.1626L17.4269 54.9286H23.7167L23.718 54.9299Z" fill="#3F3F3F"/>
<path d="M39.9666 54.9299C39.9246 55.1783 40.0701 55.4201 40.0714 55.6527C40.0845 58.93 39.5879 63.2625 39.96 66.4347C39.9823 66.6266 39.9757 66.7724 40.1631 66.8881H50.4495C50.5072 67.118 50.3552 67.1509 50.2543 67.2836C48.9976 68.9288 46.7792 70.5228 45.3784 72.1181L34.7251 72.1444V54.9299H39.9666Z" fill="#3F3F3F"/>
</g>
<defs>
<clipPath id="clip0_196_440">
<rect width="63.4219" height="82" fill="white"/>
</clipPath>
</defs>
</svg>
