<svg width="92" height="29" viewBox="0 0 92 29" fill="none" xmlns="http://www.w3.org/2000/svg">
<path d="M51.9232 23.4218H51.401L51.4943 22.9609H52.6078L52.3361 24.3702C52.3041 24.5167 52.2562 24.6526 52.2562 24.6526H52.2695C52.4906 24.3382 52.8982 24.1171 53.3111 24.1171C54.049 24.1171 54.4752 24.6153 54.4752 25.3985C54.4752 26.5733 53.6388 27.3805 52.7756 27.3805C52.3521 27.3805 51.9818 27.1887 51.8273 26.813H51.8139C51.8139 26.813 51.8086 26.9303 51.7846 27.0661L51.7367 27.3059H51.1772L51.9285 23.4191L51.9232 23.4218ZM52.717 26.8637C53.2472 26.8637 53.8625 26.3335 53.8625 25.4411C53.8625 24.9429 53.5961 24.6392 53.1592 24.6392C52.5119 24.6392 52.0137 25.3292 52.0137 26.0751C52.0137 26.5067 52.2242 26.8637 52.7144 26.8637H52.717Z" fill="white"/>
<path d="M55.0535 28.1026C55.3172 28.1026 55.5597 27.9188 55.7115 27.671L55.8953 27.362L55.3359 24.6528H54.9416L55.0349 24.1919H56.4335L56.3482 24.6528H55.9353L56.2683 26.5069C56.2923 26.6428 56.2736 26.7786 56.2736 26.7786H56.2923C56.2923 26.7786 56.3402 26.6428 56.4201 26.5069L57.4671 24.6528H57.0675L57.1607 24.1919H58.5593L58.4661 24.6528H58.0851L56.231 27.7989C55.9033 28.3584 55.4931 28.6008 55.0429 28.6008C54.5927 28.6008 54.3662 28.3983 54.3662 28.3983L54.6433 27.9667C54.6433 27.9667 54.7898 28.1026 55.0562 28.1026H55.0535Z" fill="white"/>
<path d="M61.085 21.0508H72.6626V22.1244H61.3514" fill="white"/>
<path d="M68.086 23.8481H68.5921V22.7745H66.2372V23.8481H66.6767L66.3491 25.3852C66.3224 25.5131 66.3064 25.6596 66.2984 25.7715L66.2825 25.9686H66.2478C66.2478 25.8994 66.2478 25.8301 66.2398 25.7715C66.2318 25.6596 66.2132 25.5131 66.1812 25.3852L65.5712 22.7719H64.3005L63.6904 25.3852C63.6638 25.5131 63.6398 25.6596 63.6291 25.7715C63.6211 25.8301 63.6211 25.8994 63.6211 25.9686H63.5865L63.5705 25.7715C63.5625 25.6596 63.5439 25.5131 63.5199 25.3852L63.1923 23.8481H63.6318V22.7745H61.2769V23.8481H61.783L62.6248 27.1994H64.3431L64.8413 25.1535C64.8759 25.0069 64.9025 24.8711 64.9105 24.7592C64.9185 24.6979 64.9185 24.6313 64.9185 24.57H64.9531L64.9691 24.7592C64.9771 24.8711 64.9958 25.0176 65.0304 25.1535L65.5286 27.1994H67.2468L68.0886 23.8481H68.086ZM71.5758 24.4395H70.3051C70.3823 24.0959 70.5794 23.7868 71.019 23.7868C71.3547 23.7868 71.5784 24.0879 71.5784 24.4395M73.0996 25.0842C73.1076 24.9883 73.1155 24.8791 73.1155 24.8098C73.1155 23.5817 72.3776 22.6706 71.0536 22.6706C69.6284 22.6706 68.752 23.6856 68.752 24.983C68.752 26.1604 69.6018 27.3033 71.1842 27.3033C71.7942 27.3033 72.2498 27.1568 72.5854 26.9943C72.7746 26.901 72.9477 26.7971 73.0916 26.6852L72.5508 25.6543C72.4389 25.7315 72.311 25.8008 72.1725 25.8594C71.9407 25.9633 71.6397 26.0752 71.304 26.0752C70.8245 26.0752 70.385 25.8354 70.2731 25.26H73.0836L73.0996 25.0869V25.0842ZM76.973 25.0149C76.973 25.7022 76.5787 26.0725 76.1045 26.0725C75.5211 26.0725 75.2361 25.5397 75.2361 25.0149C75.2361 24.2584 75.657 23.9227 76.1045 23.9227C76.6187 23.9227 76.973 24.3516 76.973 25.0149ZM78.4675 24.9883C78.4675 23.6137 77.6763 22.668 76.4748 22.668C76.0885 22.668 75.7795 22.7719 75.5824 22.8997C75.4705 22.969 75.3666 23.0463 75.2814 23.1395H75.2654C75.2654 23.1129 75.2654 23.0782 75.2734 23.0356C75.2814 22.9663 75.2814 22.8731 75.2814 22.7612V21.0509H73.1928V22.1245H73.7949V27.1941H75.1881V26.8504C75.1881 26.8158 75.1881 26.7811 75.1801 26.7572H75.1961C75.2734 26.8504 75.3586 26.9463 75.4705 27.0236C75.6676 27.1621 75.9607 27.298 76.4056 27.298C77.583 27.298 78.4675 26.3869 78.4675 24.9856M79.4638 22.2124H80.9157V21.0536H79.4638V22.2124ZM78.8884 27.1967H81.4911V26.1231H80.9343V22.7719H78.8457V23.8454H79.4478V26.1231H78.8884V27.1967ZM85.0848 22.1352L85.17 22.1512V20.9817L85.0235 20.9657C84.9303 20.9577 84.8077 20.9497 84.6452 20.9497C83.9579 20.9497 82.6872 21.1389 82.6872 22.5907V22.7719H82.0851V23.8454H82.6872V26.1231H82.1278V27.1967H84.8264V26.1231H84.1737V23.8454H85.0848V22.7719H84.1737V22.5587C84.1737 22.1378 84.5946 22.1298 84.8104 22.1298C84.9383 22.1298 85.0262 22.1298 85.0848 22.1378M90.8283 23.8481V22.7745H88.5346V23.8481H88.9395L88.4147 25.4891C88.3721 25.617 88.3375 25.7635 88.3108 25.8754C88.2949 25.934 88.2842 26.0033 88.2762 26.0645H88.2416C88.2416 26.0033 88.2336 25.9367 88.2256 25.8754C88.199 25.7635 88.183 25.617 88.1404 25.4891L87.5996 23.8481H88.0285V22.7745H85.5963V23.8481H86.0944L87.5543 27.4045L87.5383 27.4471C87.4104 27.7215 87.1174 27.8068 86.8084 27.8068C86.5766 27.8068 63.0058 27.8068 62.782 27.8068L63.083 29.0002H86.8883C87.7567 29.0002 88.5373 28.6379 88.9502 27.583L90.3754 23.8454H90.831L90.8283 23.8481Z" fill="white"/>
<path d="M0 12.8669H1.72359V3.0608H0V0.258301H7.67224C8.55668 0.258301 9.48374 0.279611 10.259 0.601951C12.0918 1.29192 13.2346 3.16736 13.2346 5.45305C13.2346 7.73874 12.0278 9.74204 10.195 10.3681C9.48374 10.6052 8.70853 10.6904 7.78147 10.6904H5.58369V12.8669H7.30727V15.6694H0V12.8669ZM7.21937 7.67214C7.82409 7.67214 8.16774 7.58689 8.57799 7.34979C9.15874 6.98217 9.39583 6.29486 9.39583 5.45305C9.39583 4.61123 9.13743 3.96655 8.64193 3.62023C8.2743 3.38314 7.82409 3.27658 7.2833 3.27658H5.58102V7.6748H7.21937V7.67214Z" fill="white"/>
<path d="M13.0002 12.8674H14.271L18.4747 0.258789H22.8729L27.0767 12.8674H28.3474V15.6699H21.9032V12.8674H23.2406L22.6598 10.8188H18.6932L18.1124 12.8674H19.4497V15.6699H13.0056V12.8674H13.0002ZM21.8153 7.88841L21.0188 5.04329C20.867 4.54779 20.8456 4.15884 20.7817 3.87913L20.7178 3.42625H20.6325C20.6325 3.5781 20.6112 3.72728 20.5899 3.87913C20.526 4.15884 20.4833 4.54779 20.3315 5.04329L19.5137 7.88841H21.8207H21.8153Z" fill="white"/>
<path d="M31.0194 12.8671H32.743V9.35332L28.9708 3.05836H27.6575V0.255859H34.0377V3.05836H32.7457L34.3201 5.90348C34.4719 6.14057 34.5145 6.29242 34.5785 6.4416C34.6211 6.50554 34.6424 6.59345 34.6637 6.65739H34.7063C34.7277 6.59345 34.749 6.50554 34.7916 6.4416L35.05 5.90348L36.6244 3.05836H35.3324V0.255859H41.6913V3.05836H40.3753L36.6031 9.35332V12.8671H38.3267V15.6696H31.0194V12.8671Z" fill="white"/>
<path d="M57.1023 7.2191C55.7437 7.34963 55.2375 7.65066 54.2838 8.66297C53.5459 9.41687 52.8639 10.2374 52.0275 11.1858C53.1703 12.5231 54.2359 14.1827 54.9578 15.7118L54.782 15.9702C52.6482 15.9702 51.4414 15.4747 51.2123 15.195C50.9592 14.9153 50.4637 14.1827 49.8244 13.4048C48.1807 15.1497 46.6356 15.9702 45.213 15.9702C42.304 15.9702 41.0839 13.8364 41.4142 11.961C41.7339 10.1495 42.9913 9.37425 45.1224 8.03693C44.3872 7.19512 43.9929 6.24675 44.2167 4.97603C44.5577 3.03666 46.6436 1.35303 48.7774 1.35303C50.9113 1.35303 52.1846 2.69034 51.8676 4.47787C51.7344 5.23177 51.2922 5.79387 50.6475 6.26806C50.1254 6.657 49.4461 7.08856 48.6975 7.53877C49.2303 8.05558 50.2692 9.13449 51.5053 10.5571C51.9928 9.99762 52.443 9.3929 52.8879 8.70293C53.5113 7.73324 53.4181 7.40824 51.9635 7.21643L52.1154 6.48384H57.2222L57.0943 7.21643L57.1023 7.2191ZM49.3582 12.7602C48.0688 11.1431 47.1391 10.1948 45.586 8.59903C44.8933 9.22507 44.4112 10.1308 44.262 10.97C43.897 13.0399 45.1491 14.0096 46.6143 14.0096C47.5413 14.0096 48.7002 13.4288 49.3555 12.7602H49.3582ZM46.6409 4.09425C46.4518 5.17316 46.9046 5.90576 48.1674 7.0486C48.812 6.57442 49.4807 5.71129 49.7178 4.37664C49.9123 3.27642 49.5207 2.20017 48.4204 2.20017C47.5999 2.20017 46.8167 3.10592 46.6409 4.09692V4.09425Z" fill="white"/>
<path d="M66.7137 0C69.5375 0 72.9207 1.05493 72.9207 3.01828V5.51975H69.4735V4.39822C69.4735 3.623 68.3307 3.23406 66.9294 3.23406C64.1056 3.23406 62.446 4.78449 62.446 7.69622C62.446 10.6079 64.1056 12.6965 67.1452 12.6965C68.1788 12.6965 69.8172 12.4381 69.8172 11.575V10.52H67.3397V7.71753H73.267V12.8483C73.267 15.1553 68.9141 15.9306 66.671 15.9306C61.9292 15.9306 58.458 12.526 58.458 7.86938C58.458 3.21275 61.8839 0.00266251 66.7137 0.00266251V0Z" fill="white"/>
<path d="M83.1155 0C87.8361 0 91.2193 3.44984 91.2193 7.86671C91.2193 12.2836 87.8361 15.9279 83.1155 15.9279C78.395 15.9279 75.0117 12.3928 75.0117 7.86671C75.0117 3.34062 78.395 0 83.1155 0ZM83.1155 12.5873C85.3799 12.5873 87.2314 10.56 87.2314 7.86671C87.2314 5.17343 85.3772 3.34062 83.1155 3.34062C80.8538 3.34062 78.9997 5.27999 78.9997 7.86671C78.9997 10.4534 80.8538 12.5873 83.1155 12.5873Z" fill="white"/>
</svg>
