<svg width="132" height="42" viewBox="0 0 132 42" fill="none" xmlns="http://www.w3.org/2000/svg">
<path d="M75.067 33.8124H74.3172L74.4511 33.1506H76.0503L75.66 35.1744C75.6141 35.3848 75.5453 35.5799 75.5453 35.5799H75.5644C75.8819 35.1285 76.4673 34.8109 77.0603 34.8109C78.12 34.8109 78.7321 35.5263 78.7321 36.6511C78.7321 38.3382 77.5308 39.4974 76.2913 39.4974C75.683 39.4974 75.1512 39.222 74.9293 38.6826H74.9102C74.9102 38.6826 74.9025 38.8509 74.8681 39.046L74.7993 39.3903H73.9958L75.0747 33.8086L75.067 33.8124ZM76.2071 38.7552C76.9684 38.7552 77.8522 37.9939 77.8522 36.7123C77.8522 35.9969 77.4696 35.5608 76.8422 35.5608C75.9125 35.5608 75.1971 36.5516 75.1971 37.6228C75.1971 38.2426 75.4994 38.7552 76.2033 38.7552H76.2071Z" fill="#00025B"/>
<path d="M79.5622 40.5342C79.941 40.5342 80.2891 40.2702 80.5072 39.9144L80.7712 39.4707L79.9677 35.5799H79.4016L79.5355 34.9181H81.544L81.4215 35.5799H80.8285L81.3067 38.2426C81.3412 38.4377 81.3144 38.6328 81.3144 38.6328H81.3412C81.3412 38.6328 81.41 38.4377 81.5248 38.2426L83.0283 35.5799H82.4545L82.5884 34.9181H84.5969L84.463 35.5799H83.9159L81.2532 40.0981C80.7826 40.9015 80.1935 41.2496 79.5469 41.2496C78.9004 41.2496 78.5752 40.9589 78.5752 40.9589L78.9731 40.3391C78.9731 40.3391 79.1835 40.5342 79.5661 40.5342H79.5622Z" fill="#00025B"/>
<path d="M88.2236 30.4075H104.85V31.9493H88.6062" fill="#00025B"/>
<path d="M98.2775 34.4245H99.0044V32.8828H95.6225V34.4245H96.2537L95.7832 36.632C95.7449 36.8156 95.722 37.026 95.7105 37.1867L95.6875 37.4698H95.6378C95.6378 37.3703 95.6378 37.2709 95.6263 37.1867C95.6149 37.026 95.5881 36.8156 95.5422 36.632L94.6661 32.8789H92.8412L91.9651 36.632C91.9269 36.8156 91.8924 37.026 91.8771 37.1867C91.8656 37.2709 91.8656 37.3703 91.8656 37.4698H91.8159L91.793 37.1867C91.7815 37.026 91.7547 36.8156 91.7203 36.632L91.2497 34.4245H91.881V32.8828H88.499V34.4245H89.2259L90.4348 39.2373H92.9024L93.6178 36.2991C93.6676 36.0887 93.7058 35.8936 93.7173 35.7329C93.7288 35.6449 93.7288 35.5493 93.7288 35.4613H93.7785L93.8015 35.7329C93.8129 35.8936 93.8397 36.104 93.8895 36.2991L94.6049 39.2373H97.0725L98.2814 34.4245H98.2775ZM103.289 35.2738H101.464C101.575 34.7803 101.858 34.3365 102.49 34.3365C102.972 34.3365 103.293 34.7689 103.293 35.2738M105.478 36.1997C105.489 36.0619 105.5 35.9051 105.5 35.8056C105.5 34.042 104.441 32.7336 102.539 32.7336C100.493 32.7336 99.234 34.1912 99.234 36.0543C99.234 37.7453 100.454 39.3865 102.727 39.3865C103.603 39.3865 104.257 39.1761 104.739 38.9427C105.011 38.8088 105.259 38.6596 105.466 38.4989L104.689 37.0184C104.529 37.1293 104.345 37.2288 104.146 37.313C103.813 37.4622 103.381 37.6228 102.899 37.6228C102.21 37.6228 101.579 37.2785 101.418 36.4522H105.455L105.478 36.2035V36.1997ZM111.04 36.1002C111.04 37.0872 110.474 37.619 109.793 37.619C108.955 37.619 108.546 36.8539 108.546 36.1002C108.546 35.0137 109.15 34.5317 109.793 34.5317C110.531 34.5317 111.04 35.1476 111.04 36.1002ZM113.186 36.0619C113.186 34.0879 112.05 32.7297 110.325 32.7297C109.77 32.7297 109.326 32.8789 109.043 33.0626C108.882 33.1621 108.733 33.273 108.611 33.4069H108.588C108.588 33.3686 108.588 33.3189 108.599 33.2577C108.611 33.1582 108.611 33.0243 108.611 32.8636V30.4075H105.611V31.9493H106.476V39.2296H108.477V38.7361C108.477 38.6864 108.477 38.6366 108.465 38.6022H108.488C108.599 38.7361 108.722 38.8738 108.882 38.9848C109.166 39.1837 109.586 39.3788 110.225 39.3788C111.916 39.3788 113.186 38.0704 113.186 36.0581M114.617 32.0755H116.702V30.4114H114.617V32.0755ZM113.791 39.2335H117.529V37.6917H116.729V32.8789H113.73V34.4207H114.594V37.6917H113.791V39.2335ZM122.689 31.9646L122.812 31.9876V30.3081L122.601 30.2851C122.468 30.2736 122.292 30.2622 122.058 30.2622C121.071 30.2622 119.246 30.5338 119.246 32.6188V32.8789H118.382V34.4207H119.246V37.6917H118.443V39.2335H122.318V37.6917H121.381V34.4207H122.689V32.8789H121.381V32.5729C121.381 31.9684 121.986 31.957 122.295 31.957C122.479 31.957 122.605 31.957 122.689 31.9684M130.938 34.4245V32.8828H127.644V34.4245H128.225L127.472 36.7812C127.41 36.9648 127.361 37.1752 127.322 37.3359C127.299 37.4201 127.284 37.5195 127.273 37.6075H127.223C127.223 37.5195 127.211 37.4239 127.2 37.3359C127.162 37.1752 127.139 36.9648 127.078 36.7812L126.301 34.4245H126.917V32.8828H123.424V34.4245H124.139L126.236 39.5319L126.213 39.5931C126.029 39.9871 125.608 40.1095 125.165 40.1095C124.832 40.1095 90.9819 40.1095 90.6605 40.1095L91.0929 41.8235H125.279C126.527 41.8235 127.648 41.3032 128.241 39.7882L130.287 34.4207H130.941L130.938 34.4245Z" fill="#1D1D1B"/>
<path d="M0.5 18.6551H2.97524V4.57263H0.5V0.547974H11.5181C12.7882 0.547974 14.1195 0.578577 15.2328 1.04149C17.8649 2.03235 19.5061 4.72565 19.5061 8.00812C19.5061 11.2906 17.7731 14.1675 15.141 15.0666C14.1195 15.407 13.0063 15.5295 11.6749 15.5295H8.5187V18.6551H10.9939V22.6797H0.5V18.6551ZM10.8677 11.1949C11.7361 11.1949 12.2296 11.0725 12.8188 10.732C13.6528 10.2041 13.9933 9.21704 13.9933 8.00812C13.9933 6.79919 13.6222 5.87337 12.9106 5.37602C12.3827 5.03553 11.7361 4.88251 10.9595 4.88251H8.51487V11.1988H10.8677V11.1949Z" fill="#00025B"/>
<path d="M19.1694 18.6549H20.9943L27.0313 0.547829H33.3475L39.3845 18.6549H41.2094V22.6796H31.955V18.6549H33.8755L33.0415 15.713H27.345L26.511 18.6549H28.4315V22.6796H19.1771V18.6549H19.1694ZM31.8287 11.5047L30.6848 7.41881C30.4668 6.70723 30.4362 6.14867 30.3443 5.74697L30.2525 5.0966H30.1301C30.1301 5.31467 30.0995 5.52891 30.0689 5.74697C29.9771 6.14867 29.9159 6.70723 29.6978 7.41881L28.5233 11.5047H31.8364H31.8287Z" fill="#00025B"/>
<path d="M45.0466 18.6549H47.5218V13.6088L42.1046 4.56865H40.2185V0.544006H49.3811V4.56865H47.5256L49.7866 8.65452C50.0047 8.99501 50.0659 9.21308 50.1577 9.42732C50.2189 9.51913 50.2495 9.64538 50.2801 9.7372H50.3413C50.372 9.64538 50.4026 9.51913 50.4638 9.42732L50.8349 8.65452L53.0959 4.56865H51.2404V0.544006H60.3724V4.56865H58.4825L53.0653 13.6088V18.6549H55.5405V22.6796H45.0466V18.6549Z" fill="#00025B"/>
<path d="M82.5041 10.5444C80.553 10.7319 79.8261 11.1642 78.4565 12.618C77.3968 13.7006 76.4174 14.879 75.2161 16.2409C76.8574 18.1614 78.3877 20.5448 79.4244 22.7408L79.1719 23.1119C76.1075 23.1119 74.3745 22.4003 74.0455 21.9986C73.682 21.5969 72.9704 20.5448 72.0523 19.4277C69.6918 21.9336 67.4729 23.1119 65.43 23.1119C61.2523 23.1119 59.5001 20.0475 59.9745 17.3542C60.4336 14.7527 62.2393 13.6394 65.2999 11.7189C64.244 10.51 63.6778 9.14804 63.9991 7.32318C64.4888 4.53805 67.4844 2.1202 70.5488 2.1202C73.6132 2.1202 75.4419 4.04071 74.9866 6.60776C74.7953 7.69044 74.1602 8.49767 73.2344 9.17864C72.4846 9.7372 71.509 10.357 70.434 11.0035C71.1991 11.7457 72.6912 13.2951 74.4663 15.338C75.1664 14.5346 75.813 13.6662 76.4518 12.6753C77.3471 11.2828 77.2132 10.816 75.1243 10.5406L75.3424 9.48853H82.6763L82.4926 10.5406L82.5041 10.5444ZM71.3828 18.5019C69.5311 16.1797 68.196 14.8177 65.9656 12.5261C64.9709 13.4252 64.2784 14.7259 64.0642 15.931C63.5401 18.9036 65.3381 20.2962 67.4423 20.2962C68.7736 20.2962 70.4378 19.4622 71.3789 18.5019H71.3828ZM67.4805 6.05686C67.2089 7.60627 67.8593 8.65835 69.6727 10.2996C70.5985 9.6186 71.5587 8.37907 71.8992 6.46239C72.1785 4.88237 71.6161 3.33678 70.0361 3.33678C68.8578 3.33678 67.733 4.63752 67.4805 6.06069V6.05686Z" fill="#1D1D1B"/>
<path d="M96.3071 0.176758C100.362 0.176758 105.221 1.69174 105.221 4.51129V8.10364H100.271V6.49301C100.271 5.37973 98.6293 4.82117 96.617 4.82117C92.5617 4.82117 90.1783 7.04774 90.1783 11.2292C90.1783 15.4108 92.5617 18.4101 96.9268 18.4101C98.4112 18.4101 100.764 18.039 100.764 16.7995V15.2845H97.2061V11.2599H105.718V18.6282C105.718 21.9412 99.4671 23.0545 96.2459 23.0545C89.4361 23.0545 84.4512 18.1653 84.4512 11.4779C84.4512 4.79057 89.371 0.180581 96.3071 0.180581V0.176758Z" fill="#00025B"/>
<path d="M119.862 0.176758C126.641 0.176758 131.5 5.13106 131.5 11.4741C131.5 17.8171 126.641 23.0507 119.862 23.0507C113.083 23.0507 108.224 17.974 108.224 11.4741C108.224 4.9742 113.083 0.176758 119.862 0.176758ZM119.862 18.2533C123.114 18.2533 125.773 15.3419 125.773 11.4741C125.773 7.60629 123.11 4.97421 119.862 4.97421C116.614 4.97421 113.951 7.75932 113.951 11.4741C113.951 15.1889 116.614 18.2533 119.862 18.2533Z" fill="#00025B"/>
</svg>
