<svg width="69" height="82" viewBox="0 0 69 82" fill="none" xmlns="http://www.w3.org/2000/svg">
<g clip-path="url(#clip0_199_489)">
<path d="M34.1509 81.9647C33.9793 82.1088 33.9068 81.7618 33.8156 81.6697C30.6954 78.5171 27.5507 75.3822 24.401 72.258C19.3595 67.2557 13.8533 62.2269 9.05483 57.0197C-9.48119 36.9054 2.07037 4.53674 28.925 0.42351C60.484 -4.41121 80.8345 33.2804 59.1528 56.9226C51.338 65.4442 42.3312 73.2991 34.294 81.6697C34.194 81.7736 34.1636 81.9549 34.1509 81.9647ZM49.4441 13.2504C43.7997 9.31558 37.174 7.61285 30.2945 8.55685C29.7837 8.62743 28.4006 8.81662 27.9996 9.0068C27.8879 9.05973 27.8585 9.09404 27.8026 9.20187C27.634 9.52536 27.3791 10.6409 27.2419 11.0918C26.0107 15.1453 25.1853 19.4506 24.5461 23.6384L24.9333 23.5854C31.7266 19.2281 39.264 16.3373 46.9944 14.0817C47.6973 13.8768 48.6844 13.7513 49.3216 13.467C49.4549 13.4073 49.4755 13.4553 49.4441 13.2494V13.2504ZM23.8589 10.4066C17.7842 12.9083 12.576 18.1841 10.1586 24.3001C9.96355 24.7931 9.38813 26.2057 9.35382 26.6429C9.34303 26.786 9.33813 26.9145 9.44498 27.0282C12.8181 30.6581 16.4883 34.0048 20.3809 37.0701C20.3603 32.4971 20.5113 28.0388 21.1299 23.508C21.7357 19.0752 22.7973 14.7414 23.8599 10.4076L23.8589 10.4066ZM59.639 36.8731C60.5006 30.2494 58.4754 23.3031 54.3426 18.1057C54.0573 17.7469 52.9908 16.3804 52.6771 16.2373C52.5477 16.1785 52.4938 16.1952 52.3653 16.2089C51.3949 16.3128 49.8166 16.8147 48.8158 17.0813C45.2368 18.0322 41.7588 19.285 38.271 20.5064L38.2798 20.7877C45.2534 24.3608 51.5164 29.1995 57.1912 34.5694C57.8725 35.2144 58.6411 36.182 59.3459 36.728C59.4439 36.8035 59.4714 36.9172 59.64 36.8741L59.639 36.8731ZM44.2496 57.4588C44.5261 57.7333 48.4041 55.3277 48.8873 54.9905C53.6603 51.6615 57.0942 46.7513 58.8401 41.2098L58.7646 40.9383C55.3042 37.3877 51.7164 33.9744 47.8257 30.8944C47.6041 30.8532 47.6904 30.9914 47.6796 31.1375C47.5365 33.0961 47.7551 35.235 47.6836 37.2211C47.5973 39.6129 47.3081 42.0803 46.9797 44.4575C46.371 48.8569 45.3662 53.1721 44.2496 57.4598V57.4588ZM29.9376 47.1679C23.2649 43.7664 17.1049 39.1571 11.6535 34.0332C10.7576 33.1912 9.67927 31.8423 8.76467 31.1385C8.66664 31.063 8.64018 30.9483 8.47059 30.9924C7.50208 38.518 10.1959 46.3102 15.4325 51.7272C19.9957 50.7547 24.5432 49.449 28.8848 47.7306C29.1652 47.6198 29.5475 47.4993 29.7994 47.3718C29.9033 47.3199 29.9837 47.4218 29.9376 47.1679ZM43.5625 44.2261C43.4145 44.1898 43.3321 44.2604 43.2135 44.3173C41.9656 44.9113 40.4942 46.0024 39.2179 46.6935C32.8471 50.1411 25.8509 52.6408 18.8282 54.42C18.7223 54.4063 18.7429 54.6121 18.7596 54.666C18.8135 54.8395 21.4651 56.3982 21.8327 56.5942C27.3958 59.5704 34.0666 60.383 40.209 58.9096C41.7529 54.1387 42.9028 49.2069 43.5625 44.2261Z" fill="#3F3F3F"/>
</g>
<defs>
<clipPath id="clip0_199_489">
<rect width="68.1624" height="82" fill="white"/>
</clipPath>
</defs>
</svg>
